<svg xmlns="http://www.w3.org/2000/svg" xmlns:xlink="http://www.w3.org/1999/xlink" width="900" height="600" viewBox="0 0 900 600"><defs><path id="a" d="M236.616 175.453A71.584 71.584 0 0 1 256 167.268v-14.274c0-4.415 3.583-7.994 8-7.994h20c4.418 0 8 3.584 8 7.994v14.274a71.59 71.59 0 0 1 19.64 8.343l9.947-9.947c3.122-3.122 8.187-3.119 11.31.005l14.142 14.14c3.124 3.125 3.122 8.193.004 11.31l-10.386 10.387A71.53 71.53 0 0 1 344.216 221h14.79c4.415 0 7.994 3.583 7.994 8v20c0 4.418-3.584 8-7.994 8h-15.82a71.63 71.63 0 0 1-8.18 18.257l11.33 11.33c3.122 3.122 3.119 8.187-.005 11.31l-14.14 14.142c-3.125 3.124-8.193 3.122-11.31.004l-12.027-12.026A71.528 71.528 0 0 1 291 306.98v17.025c0 4.415-3.583 7.994-8 7.994h-20c-4.418 0-8-3.584-8-7.994v-17.54a71.577 71.577 0 0 1-17.391-7.326l-12.196 12.196c-3.122 3.122-8.187 3.119-11.31-.005l-14.142-14.14c-3.124-3.125-3.122-8.193-.004-11.31l12.12-12.122A71.584 71.584 0 0 1 204.534 256h-16.539c-4.415 0-7.994-3.583-7.994-8v-20c0-4.418 3.584-8 7.994-8h16.025a71.543 71.543 0 0 1 7.474-18.758l-10.83-10.83c-3.121-3.121-3.118-8.186.006-11.31l14.14-14.14c3.125-3.125 8.193-3.123 11.31-.005l10.497 10.496zM274 274c19.33 0 35-15.67 35-35s-15.67-35-35-35-35 15.67-35 35 15.67 35 35 35z"/><circle id="b" cx="11.5" cy="6.5" r="6.5"/><circle id="c" cx="140.5" cy="33.5" r="33.5"/><linearGradient id="d" x1="100%" x2="0%" y1="0%" y2="100%"><stop offset="0%" stop-color="#FC6563"/><stop offset="59.933%" stop-color="#FB9346"/><stop offset="100%" stop-color="#F9B233"/></linearGradient></defs><g fill="none" fill-rule="evenodd"><path fill="#E8ECF3" d="M151.5 155h-6.003c-5.25 0-9.497 4.253-9.497 9.5 0 5.248 4.252 9.5 9.497 9.5h6.003-101 24.003c5.25 0 9.497-4.253 9.497-9.5 0-5.248-4.252-9.5-9.497-9.5H50.5h101zm92-38h-101 15.003c5.245 0 9.497 4.252 9.497 9.5 0 5.247-4.248 9.5-9.497 9.5H142.5h101-15.003c-5.245 0-9.497-4.252-9.497-9.5 0-5.247 4.248-9.5 9.497-9.5H243.5zM123 107.5c0-5.247 4.248-9.5 9.497-9.5h131.006c5.245 0 9.497 4.252 9.497 9.5 0 5.247-4.248 9.5-9.497 9.5H132.497c-5.245 0-9.497-4.252-9.497-9.5zm-80 76c0-5.247 4.25-9.5 9.498-9.5h118.004c5.246 0 9.498 4.252 9.498 9.5 0 5.247-4.25 9.5-9.498 9.5H52.498c-5.246 0-9.498-4.252-9.498-9.5zm5-38c0-5.247 4.254-9.5 9.5-9.5h191a9.5 9.5 0 0 1 9.5 9.5c0 5.247-4.254 9.5-9.5 9.5h-191a9.5 9.5 0 0 1-9.5-9.5zM813.067 248h-83.9 3.735c5.246 0 9.498 4.252 9.498 9.5 0 5.247-4.245 9.5-9.498 9.5h-3.735 83.9-3.37c-5.245 0-9.497-4.252-9.497-9.5 0-5.247 4.245-9.5 9.498-9.5h3.369zm-21.6-38h-74.434 5.536c5.245 0 9.498 4.252 9.498 9.5 0 5.247-4.245 9.5-9.498 9.5h-5.536 74.434-11.036c-5.245 0-9.498-4.252-9.498-9.5 0-5.247 4.245-9.5 9.498-9.5h11.036zM669 200.5c0-5.247 4.25-9.5 9.49-9.5h126.953c5.241 0 9.49 4.252 9.49 9.5 0 5.247-4.249 9.5-9.49 9.5H678.49c-5.242 0-9.491-4.252-9.491-9.5zm10.267 76c0-5.247 4.259-9.5 9.502-9.5h134.995c5.248 0 9.503 4.252 9.503 9.5 0 5.247-4.26 9.5-9.503 9.5H688.769c-5.248 0-9.502-4.252-9.502-9.5zm22.733-38c0-5.247 4.26-9.5 9.503-9.5h134.994c5.249 0 9.503 4.252 9.503 9.5 0 5.247-4.26 9.5-9.503 9.5H711.503c-5.249 0-9.503-4.252-9.503-9.5z"/><path stroke="#DEE0EA" stroke-dasharray="12,12" stroke-linecap="round" stroke-linejoin="round" stroke-width="4" d="M355 110h-25c-13.807 0-25 11.192-25 25v172"/><path fill="#DEE0EA" d="M395 110.432c0 .884-.723 1.687-.723 1.687l-8.204 8.29a2.012 2.012 0 0 1-2.853-.005c-.79-.79-.79-2.069-.004-2.855l5.09-5.095h-21.294a2.012 2.012 0 0 1-2.012-2.022c0-1.117.907-2.023 2.012-2.023h21.158l-4.954-4.958a2.021 2.021 0 0 1 .004-2.855 2.012 2.012 0 0 1 2.853-.005l8.1 8.018s.827.938.827 1.823z"/><g stroke-linecap="round" stroke-linejoin="round"><use fill="#E8ECF3" xlink:href="#a"/><path stroke="#6F7592" stroke-width="6" d="M237.098 171.692l-8.857-8.857c-4.291-4.29-11.258-4.29-15.553.005l-14.14 14.141c-4.296 4.295-4.3 11.26-.005 15.553l9.232 9.232A74.528 74.528 0 0 0 201.697 217h-13.703c-6.069 0-10.994 4.927-10.994 11v20c0 6.073 4.922 11 10.994 11h14.285a74.57 74.57 0 0 0 6.054 14.261l-10.498 10.498c-4.29 4.291-4.29 11.258.005 15.553l14.141 14.14c4.295 4.296 11.26 4.3 15.553.005l10.583-10.583A74.564 74.564 0 0 0 252 308.721v15.285c0 6.069 4.927 10.994 11 10.994h20c6.073 0 11-4.922 11-10.994v-14.703a74.513 74.513 0 0 0 14.306-5.592l10.453 10.454c4.291 4.29 11.258 4.29 15.553-.005l14.14-14.141c4.296-4.295 4.3-11.26.005-15.553l-9.666-9.666a74.616 74.616 0 0 0 6.616-14.8h13.599c6.069 0 10.994-4.927 10.994-11v-20c0-6.073-4.922-11-10.994-11h-12.434a74.514 74.514 0 0 0-6.204-15.963l8.797-8.796c4.29-4.291 4.29-11.258-.005-15.553l-14.141-14.14c-4.295-4.296-11.26-4.3-15.553-.005l-8.3 8.3A74.574 74.574 0 0 0 295 164.98v-11.987c0-6.069-4.927-10.994-11-10.994h-20c-6.073 0-11 4.922-11 10.994v11.987a74.57 74.57 0 0 0-15.902 6.711zM274 271c-17.673 0-32-14.327-32-32 0-17.673 14.327-32 32-32 17.673 0 32 14.327 32 32 0 17.673-14.327 32-32 32z"/></g><path stroke="#DEE0EA" stroke-dasharray="12,12" stroke-linecap="round" stroke-linejoin="round" stroke-width="4" d="M620 110h16.5c9.113 0 16.5 7.388 16.5 16.49V393"/><path fill="#DEE0EA" d="M584 110.432c0 .884.723 1.687.723 1.687l8.204 8.29a2.012 2.012 0 0 0 2.853-.005c.79-.79.79-2.069.004-2.855l-5.09-5.095h21.294a2.012 2.012 0 0 0 2.012-2.022 2.021 2.021 0 0 0-2.012-2.023H590.83l4.954-4.958a2.021 2.021 0 0 0-.004-2.855 2.012 2.012 0 0 0-2.853-.005l-8.1 8.018s-.827.938-.827 1.823z"/><g transform="translate(252 239)"><rect width="373.919" height="38.762" y="248.286" fill="#DEE0EA" rx="19.381"/><rect width="315.265" height="267.143" x="26.185" fill="#FFF" stroke="#6F7592" stroke-width="6" rx="20"/><path fill="#E8ECF3" stroke="#6F7592" stroke-width="6" d="M26.185 15.714C26.185 7.036 33.212 0 41.9 0h283.835c8.68 0 15.715 7.034 15.715 15.714V31.43H26.185V15.714z"/><circle cx="44.5" cy="15.5" r="6.5" fill="#F27455" stroke="#8C0000" stroke-width="4"/><circle cx="64.5" cy="15.5" r="6.5" fill="#FFC740" stroke="#967700" stroke-width="4"/><circle cx="84.5" cy="15.5" r="6.5" fill="#72D052" stroke="#248E00" stroke-width="4"/><g transform="translate(83.791 64.952)"><rect width="201.1" height="168.667" fill="#E8ECF3" rx="20"/><g transform="translate(14.664 17.81)"><path fill="#AAAFC7" stroke="#AAAFC7" stroke-linecap="round" stroke-linejoin="round" stroke-width="2" d="M.461 10.48C.826 7.747 3.34 5.234 6.088 4.93c0 0 2.329-.52 9.623-.52 7.294 0 9.639.521 9.639.521 2.734.332 5.28 2.809 5.612 5.564 0 0 .46 1.512.46 7.987 0 6.474-.462 8.002-.462 8.002-.365 2.732-2.877 5.245-5.626 5.55 0 0-2.329.52-9.623.52-7.294 0-9.64-.522-9.64-.522C3.339 31.7.792 29.223.46 26.468c0 0-.46-1.512-.46-7.986 0-6.475.461-8.002.461-8.002z"/><rect width="4.19" height="3.143" x="4.19" y="16.762" fill="#E8ECF3" rx="1.28"/><rect width="4.19" height="3.143" x="10.474" y="16.762" fill="#E8ECF3" rx="1.28"/><rect width="4.19" height="3.143" x="16.758" y="16.762" fill="#E8ECF3" rx="1.28"/><rect width="4.19" height="3.143" x="4.19" y="20.952" fill="#E8ECF3" rx="1.28"/><rect width="4.19" height="3.143" x="10.474" y="20.952" fill="#E8ECF3" rx="1.28"/><rect width="4.19" height="3.143" x="16.758" y="20.952" fill="#E8ECF3" rx="1.28"/><rect width="4.19" height="3.143" x="23.043" y="16.762" fill="#E8ECF3" rx="1.28"/><rect width="4.19" height="3.143" x="23.043" y="20.952" fill="#E8ECF3" rx="1.28"/><rect width="4.19" height="3.143" x="4.19" y="25.143" fill="#E8ECF3" rx="1.28"/><rect width="4.19" height="3.143" x="10.474" y="25.143" fill="#E8ECF3" rx="1.28"/><rect width="4.19" height="3.143" x="16.758" y="25.143" fill="#E8ECF3" rx="1.28"/><rect width="4.19" height="3.143" x="23.043" y="25.143" fill="#E8ECF3" rx="1.28"/><rect width="3.142" height="6.652" x="20.948" y=".681" fill="#AAAFC7" rx="1.571"/><rect width="3.142" height="6.652" x="7.332" y=".681" fill="#AAAFC7" rx="1.571"/><path stroke="#AAAFC7" stroke-linecap="square" stroke-width="2" d="M.524 12.571h30.374"/></g><path fill="#AAAFC7" stroke="#AAAFC7" stroke-linecap="round" stroke-linejoin="round" stroke-width="2" d="M26.391 91.002c8.784 0 11.098 7.286 11.098 7.286.728 1.473-.017 2.768-1.677 2.877 0 0-3.213.313-9.421.313-6.208 0-9.421-.313-9.421-.313-1.654-.116-2.458-1.43-1.662-2.903 0 0 2.299-7.26 11.083-7.26z"/><g transform="translate(14.664 75.429)"><use fill="#AAAFC7" xlink:href="#b"/><circle cx="11.5" cy="6.5" r="5.5" stroke="#AAAFC7" stroke-width="2"/></g><path fill="#E8ECF3" d="M42.688 98.443l-6.156 6.442c-.256.269-.504.48-.766.633-.592.347-1.26.452-1.946-.065-.678-.51-.826-1.213-.745-1.932.036-.32.125-.646.26-1.003l1.181-2.97c-2.368 0-2.672-2.39-.96-4.182l6.156-6.442c.257-.268.504-.479.766-.633.593-.347 1.26-.451 1.946.066.679.51.826 1.213.745 1.932-.036.32-.125.646-.26 1.003l-1.117 2.943c2.369 0 2.608 2.417.896 4.208z"/><path fill="#F9B233" d="M41.172 91.18c.316-.828.09-.998-.506-.378L35.01 96.69c-.595.62-.404 1.123.427 1.123h1.57l-1.852 4.864c-.316.828-.09.998.506.378l5.656-5.888c.595-.62.404-1.122-.427-1.122h-1.57l1.852-4.864z"/><rect width="117.308" height="6" x="66.128" y="27.952" fill="#AAAFC7" rx="3"/><rect width="45.038" height="6" x="66.128" y="39.667" fill="#AAAFC7" rx="3"/><rect width="31.422" height="6" x="117.45" y="39.667" fill="#AAAFC7" rx="3"/><rect width="68.081" height="6" x="66.128" y="93.143" fill="#AAAFC7" rx="3"/><rect width="117.308" height="6" x="66.128" y="81.429" fill="#AAAFC7" rx="3"/><g transform="translate(14.664 123.619)"><rect width="171.773" height="31.429" fill="#02D4B1" rx="15.714"/><path fill="#FFF" d="M79.566 14.63a1.48 1.48 0 0 0-2.12 0 1.542 1.542 0 0 0 0 2.155l3.116 3.197a1.48 1.48 0 0 0 1.95.148l7.868-7.938c.674-.489.83-1.44.349-2.125a1.482 1.482 0 0 0-2.09-.354l-6.856 7.202-2.217-2.285z"/></g></g></g><g transform="translate(562 357)"><rect width="136.161" height="38.762" y="156.095" fill="#DEE0EA" rx="19.381"/><rect width="102.444" height="176" x="16.758" fill="#F9FAFC" stroke="#6F7592" stroke-width="6" rx="20"/><path fill="#E8ECF3" d="M19.9 23.905h96.36v116.286H19.9z"/><circle cx="69.5" cy="157.5" r="9.5" fill="#6F7592"/><rect width="17.806" height="5.238" x="58.654" y="8.381" fill="#6F7592" rx="2.619"/><rect width="68.081" height="13.619" x="42.943" y="31.238" fill="#AAAFC7" rx="6.81"/><rect width="39.801" height="13.619" x="71.223" y="72.095" fill="#AAAFC7" rx="6.81"/><rect width="68.081" height="20.952" x="25.137" y="48" fill="#02D4B1" rx="10.476"/><rect width="68.081" height="20.952" x="25.137" y="88.857" fill="#02D4B1" rx="10.476"/><rect width="68.081" height="20.952" x="25.137" y="111.905" fill="#02D4B1" rx="10.476"/><path fill="#02D4B1" d="M101.225 121.658a1.004 1.004 0 0 0-1.427 0 1.02 1.02 0 0 0 0 1.437l2.097 2.131c.358.36.918.394 1.313.099l5.298-5.292a1.02 1.02 0 0 0 .235-1.417 1.004 1.004 0 0 0-1.407-.236l-4.616 4.801-1.493-1.523z"/></g><g transform="translate(412 48)"><path fill="#FFF" stroke="#6F7592" stroke-width="6" d="M93 118.051c4.177 0 24.008 15.268 29.452 13.42 5.444-1.846-1.7-17.801 2.378-20.138 15.352-8.796 25.695-25.343 25.695-44.307 0-28.187-22.84-51.026-51.013-51.026H51.014C22.84 16 0 38.845 0 67.026c0 28.186 22.84 51.025 51.014 51.025H93z"/><use fill="#FFF" xlink:href="#c"/><circle cx="140.5" cy="33.5" r="31.5" stroke="#AAAFC7" stroke-width="4"/><path fill="url(#d)" d="M148.667 18.025c.857-2.231.242-2.69-1.374-1.02L131.94 32.858c-1.615 1.669-1.097 3.022 1.158 3.022h4.263l-5.028 13.095c-.857 2.231-.242 2.69 1.374 1.02l15.353-15.853c1.615-1.669 1.097-3.022-1.158-3.022h-4.263l5.028-13.095z"/><rect width="69" height="6" x="32" y="49" fill="#AAAFC7" rx="3"/><rect width="83" height="6" x="32" y="65" fill="#AAAFC7" rx="3"/><rect width="77" height="6" x="32" y="81" fill="#AAAFC7" rx="3"/></g><path fill="#F9B233" d="M225.5 378v-4.999a3 3 0 1 0-6 0V378h-4.999a3 3 0 1 0 0 6h4.999v4.999a3 3 0 1 0 6 0V384h4.999a3 3 0 1 0 0-6H225.5z"/><circle cx="598" cy="201" r="7" stroke="#EA515A" stroke-width="4"/><circle cx="123" cy="312" r="7" stroke="#02D4B1" stroke-width="4"/><circle cx="153" cy="450" r="5" fill="#EA515A"/><path fill="#39A9DB" d="M759.5 343c0-1.657 1.347-3 3-3 1.657 0 3 1.334 3 3v11c0 1.657-1.347 3-3 3-1.657 0-3-1.334-3-3v-11zm17.496 4.762a3.002 3.002 0 0 1 4.242 0 2.994 2.994 0 0 1 0 4.242l-7.778 7.778a3.002 3.002 0 0 1-4.242 0 2.994 2.994 0 0 1 0-4.242l7.778-7.778zM786 363.5c1.657 0 3 1.347 3 3 0 1.657-1.334 3-3 3h-11c-1.657 0-3-1.347-3-3 0-1.657 1.334-3 3-3h11zm-4.762 17.496a3.002 3.002 0 0 1 0 4.242 2.994 2.994 0 0 1-4.242 0l-7.778-7.778a3.002 3.002 0 0 1 0-4.242 2.994 2.994 0 0 1 4.242 0l7.778 7.778zM765.5 390c0 1.657-1.347 3-3 3-1.657 0-3-1.334-3-3v-11c0-1.657 1.347-3 3-3 1.657 0 3 1.334 3 3v11zm-17.496-4.762a3.002 3.002 0 0 1-4.242 0 2.994 2.994 0 0 1 0-4.242l7.778-7.778a3.002 3.002 0 0 1 4.242 0 2.994 2.994 0 0 1 0 4.242l-7.778 7.778zM739 369.5c-1.657 0-3-1.347-3-3 0-1.657 1.334-3 3-3h11c1.657 0 3 1.347 3 3 0 1.657-1.334 3-3 3h-11zm4.762-17.496a3.002 3.002 0 0 1 0-4.242 2.994 2.994 0 0 1 4.242 0l7.778 7.778a3.002 3.002 0 0 1 0 4.242 2.994 2.994 0 0 1-4.242 0l-7.778-7.778z"/><path fill="#F9B233" d="M739 115v-4.999a3 3 0 1 0-6 0V115h-4.999a3 3 0 1 0 0 6H733v4.999a3 3 0 1 0 6 0V121h4.999a3 3 0 1 0 0-6H739z"/></g></svg>