<svg xmlns="http://www.w3.org/2000/svg" xmlns:xlink="http://www.w3.org/1999/xlink" width="900" height="600" viewBox="0 0 900 600"><defs><circle id="a" cx="43" cy="43" r="43"/><path id="c" d="M0 10.003C0 4.48 4.48 0 9.993 0h67.505c2.764 0 6.665 1.491 8.72 3.338l30.067 27.013c2.052 1.843 3.715 5.579 3.715 8.335v109.539c0 5.527-4.485 10.008-10 10.008H10c-5.523 0-10-4.481-10-10.004V10.003z"/><path id="d" d="M74 .073h35.975c5.526 0 10.006 4.474 10.006 9.995V40.61h-3.423c-2.757 0-6.654-1.488-8.714-3.331L77.722 10.32C75.666 8.481 74 4.744 74 2V.073z"/></defs><g fill="none" fill-rule="evenodd"><path fill="#E8ECF3" stroke="#6F7592" stroke-linecap="round" stroke-linejoin="round" stroke-width="6" d="M435.283 125.154a71.584 71.584 0 0 1 21.041.04l5.578-13.14c1.725-4.064 6.422-5.958 10.488-4.232l18.409 7.814c4.067 1.726 5.964 6.425 4.24 10.484l-5.577 13.14a71.59 71.59 0 0 1 14.82 15.353l13.043-5.27c4.093-1.653 8.754.329 10.409 4.424l7.491 18.543c1.656 4.097-.326 8.76-4.415 10.412l-13.618 5.503a71.53 71.53 0 0 1-.66 20.898l13.615 5.779c4.064 1.725 5.958 6.422 4.232 10.488l-7.814 18.409c-1.726 4.067-6.425 5.964-10.484 4.24l-14.563-6.18a71.63 71.63 0 0 1-14.663 13.61l8.997 22.268-33.379 13.485-9.366-23.181a71.528 71.528 0 0 1-19.155-.565l-9.776 23.03-33.138-14.067 9.977-23.503a71.577 71.577 0 0 1-13.146-13.54l-15.993 6.461c-4.093 1.654-8.754-.328-10.409-4.423l-7.491-18.542c-1.655-4.097.326-8.761 4.415-10.413l15.893-6.422a71.584 71.584 0 0 1-.005-19.295l-15.225-6.462c-4.064-1.726-5.958-6.423-4.232-10.489l7.814-18.408c1.726-4.068 6.425-5.965 10.484-4.242l14.751 6.262a71.543 71.543 0 0 1 14.21-14.347l-5.737-14.2c-1.654-4.093.328-8.754 4.423-10.409l18.543-7.491c4.097-1.655 8.76.326 10.412 4.415l5.561 13.763zm-2.92 102.558c16.267 6.906 35.053-.684 41.959-16.952 6.905-16.269-.685-35.055-16.953-41.96-16.268-6.905-35.054.685-41.96 16.953-6.905 16.268.685 35.054 16.953 41.96z"/><path fill="#E8ECF3" d="M190.5 126h-6.003c-5.25 0-9.497 4.253-9.497 9.5 0 5.248 4.252 9.5 9.497 9.5h6.003-101 24.003c5.25 0 9.497-4.253 9.497-9.5 0-5.248-4.252-9.5-9.497-9.5H89.5h101zm92-38h-101 15.003c5.245 0 9.497 4.252 9.497 9.5 0 5.247-4.248 9.5-9.497 9.5H181.5h101-15.003c-5.245 0-9.497-4.252-9.497-9.5 0-5.247 4.248-9.5 9.497-9.5H282.5zM162 78.5c0-5.247 4.248-9.5 9.497-9.5h131.006c5.245 0 9.497 4.252 9.497 9.5 0 5.247-4.248 9.5-9.497 9.5H171.497c-5.245 0-9.497-4.252-9.497-9.5zm-80 76c0-5.247 4.25-9.5 9.498-9.5h118.004c5.246 0 9.498 4.252 9.498 9.5 0 5.247-4.25 9.5-9.498 9.5H91.498c-5.246 0-9.498-4.252-9.498-9.5zm5-38c0-5.247 4.254-9.5 9.5-9.5h191a9.5 9.5 0 0 1 9.5 9.5c0 5.247-4.254 9.5-9.5 9.5h-191a9.5 9.5 0 0 1-9.5-9.5zM775.067 251.5h-83.9 3.735c5.246 0 9.498 4.252 9.498 9.5 0 5.247-4.245 9.5-9.498 9.5h-3.735 83.9-3.37c-5.245 0-9.497-4.252-9.497-9.5 0-5.247 4.245-9.5 9.498-9.5h3.369zm-21.6-38h-74.434 5.536c5.245 0 9.498 4.252 9.498 9.5 0 5.247-4.245 9.5-9.498 9.5h-5.536 74.434-11.036c-5.245 0-9.498-4.252-9.498-9.5 0-5.247 4.245-9.5 9.498-9.5h11.036zM631 204c0-5.247 4.25-9.5 9.49-9.5h126.953c5.241 0 9.49 4.252 9.49 9.5 0 5.247-4.249 9.5-9.49 9.5H640.49c-5.242 0-9.491-4.252-9.491-9.5zm10.267 76c0-5.247 4.259-9.5 9.502-9.5h134.995c5.248 0 9.503 4.252 9.503 9.5 0 5.247-4.26 9.5-9.503 9.5H650.769c-5.248 0-9.502-4.252-9.502-9.5zM664 242c0-5.247 4.26-9.5 9.503-9.5h134.994c5.249 0 9.503 4.252 9.503 9.5 0 5.247-4.26 9.5-9.503 9.5H673.503c-5.249 0-9.503-4.252-9.503-9.5z"/><g transform="translate(101 214)"><rect width="373.919" height="38.762" y="248.286" fill="#DEE0EA" rx="19.381"/><rect width="315.265" height="267.143" x="26.185" fill="#FFF" stroke="#6F7592" stroke-width="6" rx="20"/><path fill="#E8ECF3" stroke="#6F7592" stroke-width="6" d="M26.185 15.714C26.185 7.036 33.212 0 41.9 0h283.835c8.68 0 15.715 7.034 15.715 15.714V31.43H26.185V15.714z"/><circle cx="44.5" cy="15.5" r="6.5" fill="#F27455" stroke="#8C0000" stroke-width="4"/><circle cx="64.5" cy="15.5" r="6.5" fill="#FFC740" stroke="#967700" stroke-width="4"/><circle cx="84.5" cy="15.5" r="6.5" fill="#72D052" stroke="#248E00" stroke-width="4"/><g transform="translate(138 77.419)"><mask id="b" fill="#fff"><use xlink:href="#a"/></mask><use fill="#FFF" xlink:href="#a"/><circle cx="43" cy="43" r="46" stroke="#AAAFC7" stroke-width="6"/><path fill="#EA515A" stroke="#6F7592" stroke-linejoin="round" stroke-width="4" d="M18.377 79.351c0-3.31 1.531-8.203 3.783-10.615 0 0 2.568-7.42 20.482-7.42 17.913 0 20.482 7.42 20.482 7.42 2.089 2.552 3.782 7.307 3.782 10.615v14.075H18.377V79.351z" mask="url(#b)"/></g><g transform="translate(152.333 71)"><path fill="#F4D8A8" stroke="#6F7592" stroke-width="4" d="M36.902 23.152c0-5.028 4.073-9.103 9.099-9.103 5.025 0 9.1 4.069 9.1 9.103V43.65H36.9v-20.5z"/><rect width="10.11" height="16.557" x="23.253" y="55.692" fill="#EAC4A9" stroke="#6F7592" stroke-width="4" rx="5.055"/><rect width="40.44" height="53.184" x="8.088" y="9.533" fill="#EAC4A9" stroke="#6F7592" stroke-width="4" rx="20.22"/><path fill="#F4D8A8" stroke="#6F7592" stroke-linejoin="round" stroke-width="4" d="M8.153 7.945c-4.112 1.09-7.142 4.835-7.142 9.287v26.419h6.95V33.287c0-5.295 4.297-9.878 9.596-10.217l.545-.034c.335.029.674.044 1.017.044h14.64C55.158 23.08 56.616 0 56.616 0H19.125c-5.12 0-9.46 3.332-10.972 7.945z"/><path fill="#EAC4A9" stroke="#6F7592" stroke-width="4" d="M8.041 36.125v13.547S0 50.168 0 42.898s8.041-6.773 8.041-6.773zM48.529 36.132v13.547s8.041.497 8.041-6.774c0-7.27-8.041-6.773-8.041-6.773z"/><circle cx="20" cy="38" r="2" fill="#6F7592"/><circle cx="36" cy="38" r="2" fill="#6F7592"/><path stroke="#6F7592" stroke-linecap="round" stroke-linejoin="round" stroke-width="4" d="M22.748 48.166s1.353 2.637 5.275 2.637c3.923 0 5.276-2.637 5.276-2.637"/></g><path fill="#F9B233" d="M184.439 147.81c.36-.893.102-1.076-.579-.408l-6.464 6.341c-.68.668-.462 1.21.487 1.21h1.795l-2.117 5.237c-.36.893-.102 1.076.579.408l6.464-6.341c.68-.668.462-1.21-.487-1.21h-1.795l2.117-5.237z"/><g fill="#F9B233" fill-rule="nonzero"><path d="M108.793 221.147l-8.54 4.622c-1.027.555-1.686.077-1.47-1.08l1.768-9.51-7.049-6.665c-.847-.802-.594-1.575.55-1.725l9.647-1.265 4.177-8.729c.506-1.058 1.325-1.062 1.833 0l4.177 8.729 9.648 1.265c1.15.151 1.396.924.549 1.725l-7.05 6.666 1.77 9.508c.214 1.153-.445 1.636-1.471 1.08l-8.54-4.62zM147 221.147l-8.652 4.622c-1.04.555-1.708.077-1.49-1.08l1.792-9.51-7.141-6.665c-.859-.802-.602-1.575.556-1.725l9.774-1.265 4.232-8.729c.512-1.058 1.342-1.062 1.857 0l4.231 8.729 9.774 1.265c1.166.151 1.414.924.557 1.725l-7.142 6.666 1.792 9.508c.218 1.153-.45 1.636-1.49 1.08l-8.65-4.62zM184 221.147l-8.652 4.622c-1.04.555-1.708.077-1.49-1.08l1.792-9.51-7.141-6.665c-.859-.802-.602-1.575.556-1.725l9.774-1.265 4.232-8.729c.512-1.058 1.342-1.062 1.857 0l4.231 8.729 9.774 1.265c1.166.151 1.414.924.557 1.725l-7.142 6.666 1.792 9.508c.218 1.153-.45 1.636-1.49 1.08l-8.65-4.62zM222 221.147l-8.652 4.622c-1.04.555-1.708.077-1.49-1.08l1.792-9.51-7.141-6.665c-.859-.802-.602-1.575.556-1.725l9.774-1.265 4.232-8.729c.512-1.058 1.342-1.062 1.857 0l4.231 8.729 9.774 1.265c1.166.151 1.414.924.557 1.725l-7.142 6.666 1.792 9.508c.218 1.153-.45 1.636-1.49 1.08l-8.65-4.62zM259 221.147l-8.652 4.622c-1.04.555-1.708.077-1.49-1.08l1.792-9.51-7.141-6.665c-.859-.802-.602-1.575.556-1.725l9.774-1.265 4.232-8.729c.512-1.058 1.342-1.062 1.857 0l4.231 8.729 9.774 1.265c1.166.151 1.414.924.557 1.725l-7.142 6.666 1.792 9.508c.218 1.153-.45 1.636-1.49 1.08l-8.65-4.62z"/></g></g><g transform="translate(385 242)"><rect width="373.919" height="38.762" y="248.286" fill="#DEE0EA" rx="19.381"/><rect width="315.265" height="267.143" x="26.185" fill="#FFF" stroke="#6F7592" stroke-width="6" rx="20"/><path fill="#E8ECF3" stroke="#6F7592" stroke-width="6" d="M26.185 15.714C26.185 7.036 33.212 0 41.9 0h283.835c8.68 0 15.715 7.034 15.715 15.714V31.43H26.185V15.714z"/><circle cx="44.5" cy="15.5" r="6.5" fill="#F27455" stroke="#8C0000" stroke-width="4"/><circle cx="64.5" cy="15.5" r="6.5" fill="#FFC740" stroke="#967700" stroke-width="4"/><circle cx="84.5" cy="15.5" r="6.5" fill="#72D052" stroke="#248E00" stroke-width="4"/></g><g transform="translate(515 310)"><use fill="#F9FAFC" xlink:href="#c"/><path stroke="#AAAFC7" stroke-width="6" d="M3 10.003C3 6.137 6.135 3 9.993 3h67.505c2.027 0 5.213 1.219 6.716 2.57l30.066 27.012c1.417 1.274 2.72 4.198 2.72 6.104v109.539c0 3.867-3.14 7.008-7 7.008H10c-3.865 0-7-3.137-7-7.004V10.003z"/><g transform="rotate(180 96.99 20.342)"><use fill="#DEE0EA" xlink:href="#d"/><path stroke="#AAAFC7" stroke-width="6" d="M77.113 3.073h32.862c3.87 0 7.006 3.132 7.006 6.995V37.61h-.423c-2.02 0-5.205-1.217-6.713-2.567L79.723 8.086c-1.17-1.047-2.263-3.22-2.61-5.013z"/></g><rect width="69" height="6" x="15" y="63" fill="#AAAFC7" rx="3"/><rect width="90" height="6" x="15" y="74" fill="#AAAFC7" rx="3"/><rect width="77" height="6" x="15" y="85" fill="#AAAFC7" rx="3"/><rect width="69" height="6" x="15" y="107" fill="#AAAFC7" rx="3"/><rect width="90" height="6" x="15" y="118" fill="#AAAFC7" rx="3"/><rect width="77" height="6" x="15" y="129" fill="#AAAFC7" rx="3"/><path fill="#AAAFC7" d="M32.34 41.48c5.84 0 9.24-3.24 11.12-6.56l-4.88-2.36c-1.12 2.16-3.52 3.88-6.24 3.88-3.36 0-6.04-1.72-7.4-4.44h9.8v-3.16H23.98c-.04-.36-.04-.76-.04-1.16 0-.44 0-.84.08-1.28h10.72v-3.16h-9.76c1.4-2.64 4.08-4.32 7.36-4.32 2.72 0 5.12 1.72 6.24 3.88l4.88-2.4c-1.88-3.36-5.28-6.52-11.12-6.52-6.52 0-11.8 3.64-13.6 9.36h-2.08v3.16h1.48c-.04.44-.04.84-.04 1.28 0 .4 0 .8.04 1.16h-1.48V32h2.04c1.76 5.8 7.08 9.48 13.64 9.48z"/></g></g></svg>