<svg width="628" height="451" viewBox="0 0 628 451" xmlns="http://www.w3.org/2000/svg" xmlns:xlink="http://www.w3.org/1999/xlink"><title>06E7E578-F8CF-4858-9A85-E364BFE00A2D</title><defs><circle id="a" cx="80" cy="80" r="80"/><rect id="c" y="23.829" width="26" height="3.131" rx="1.566"/><linearGradient x1="50%" y1="118.011%" x2="50%" y2=".277%" id="d"><stop stop-color="#F9B233" offset="0%"/><stop stop-color="#EA515A" offset="100%"/></linearGradient><path d="M85.838 46.246c.107-.626.162-1.27.162-1.933C86 20.944 66.972 2 43.5 2S1 20.39 1 44.313c0 .763.087 1.504.254 2.223a15.573 15.573 0 0 1 3.996-.518c5.42 0 10.194 2.773 12.986 6.982 2.792-4.209 7.566-6.982 12.986-6.982 5.42 0 10.195 2.773 12.986 6.982 2.792-4.209 7.566-6.982 12.986-6.982 5.42 0 10.195 2.773 12.987 6.982 2.791-4.209 7.565-6.982 12.986-6.982.91 0 1.803.078 2.67.228z" id="e"/><ellipse id="g" cx="17.415" cy="17.304" rx="17.415" ry="17.304"/><linearGradient x1="49.998%" y1="140.769%" x2="49.998%" y2="-62.667%" id="h"><stop stop-color="#F9B233" offset="0%"/><stop stop-color="#EA515A" offset="100%"/></linearGradient><path d="M85.838 46.246c.107-.626.162-1.27.162-1.933C86 20.944 66.972 2 43.5 2S1 20.39 1 44.313c0 .763.087 1.504.254 2.223a15.573 15.573 0 0 1 3.996-.518c5.42 0 10.194 2.773 12.986 6.982 2.792-4.209 7.566-6.982 12.986-6.982 5.42 0 10.195 2.773 12.986 6.982 2.792-4.209 7.566-6.982 12.986-6.982 5.42 0 10.195 2.773 12.987 6.982 2.791-4.209 7.565-6.982 12.986-6.982.91 0 1.803.078 2.67.228z" id="i"/><ellipse id="k" cx="17.415" cy="17.304" rx="17.415" ry="17.304"/></defs><g fill="none" fill-rule="evenodd"><path d="M117.5 114h-6.003c-5.25 0-9.497 4.253-9.497 9.5 0 5.248 4.252 9.5 9.497 9.5h6.003-101 24.003c5.25 0 9.497-4.253 9.497-9.5 0-5.248-4.252-9.5-9.497-9.5H16.5h101zm92-38h-101 15.003c5.245 0 9.497 4.252 9.497 9.5 0 5.247-4.248 9.5-9.497 9.5H108.5h101-15.003c-5.245 0-9.497-4.252-9.497-9.5 0-5.247 4.248-9.5 9.497-9.5H209.5zM89 66.5c0-5.247 4.248-9.5 9.497-9.5h131.006c5.245 0 9.497 4.252 9.497 9.5 0 5.247-4.248 9.5-9.497 9.5H98.497C93.252 76 89 71.748 89 66.5zm-80 76c0-5.247 4.25-9.5 9.498-9.5h118.004c5.246 0 9.498 4.252 9.498 9.5 0 5.247-4.25 9.5-9.498 9.5H18.498C13.252 152 9 147.748 9 142.5zm5-38c0-5.247 4.254-9.5 9.5-9.5h191a9.5 9.5 0 0 1 9.5 9.5c0 5.247-4.254 9.5-9.5 9.5h-191a9.5 9.5 0 0 1-9.5-9.5zM582.067 413h-83.9 3.735c5.246 0 9.498 4.252 9.498 9.5 0 5.247-4.245 9.5-9.498 9.5h-3.735 83.9-3.37c-5.245 0-9.497-4.252-9.497-9.5 0-5.247 4.245-9.5 9.498-9.5h3.369zm-21.6-38h-74.434 5.536c5.245 0 9.498 4.252 9.498 9.5 0 5.247-4.245 9.5-9.498 9.5h-5.536 74.434-11.036c-5.245 0-9.498-4.252-9.498-9.5 0-5.247 4.245-9.5 9.498-9.5h11.036zM438 365.5c0-5.247 4.25-9.5 9.49-9.5h126.953c5.241 0 9.49 4.252 9.49 9.5 0 5.247-4.249 9.5-9.49 9.5H447.49c-5.242 0-9.491-4.252-9.491-9.5zm10.267 76c0-5.247 4.259-9.5 9.502-9.5h134.995c5.248 0 9.503 4.252 9.503 9.5 0 5.247-4.26 9.5-9.503 9.5H457.769c-5.248 0-9.502-4.252-9.502-9.5zm22.733-38c0-5.247 4.26-9.5 9.503-9.5h134.994c5.249 0 9.503 4.252 9.503 9.5 0 5.247-4.26 9.5-9.503 9.5H480.503c-5.249 0-9.503-4.252-9.503-9.5z" fill="#E8ECF3"/><g transform="translate(4 58)"><path d="M108 304v-4.999a3 3 0 1 0-6 0V304h-4.999a3 3 0 1 0 0 6H102v4.999a3 3 0 1 0 6 0V310h4.999a3 3 0 1 0 0-6H108z" fill="#F9B233"/><circle stroke="#EA515A" stroke-width="4" cx="482" cy="5" r="7"/><circle stroke="#39A9DB" stroke-width="4" cx="340" cy="350" r="7"/><circle stroke="#02D4B1" stroke-width="4" cx="5" cy="238" r="7"/><circle fill="#EA515A" cx="35" cy="376" r="5"/><path d="M594.5 183c0-1.657 1.347-3 3-3 1.657 0 3 1.334 3 3v11c0 1.657-1.347 3-3 3-1.657 0-3-1.334-3-3v-11zm17.496 4.762a3.002 3.002 0 0 1 4.242 0 2.994 2.994 0 0 1 0 4.242l-7.778 7.778a3.002 3.002 0 0 1-4.242 0 2.994 2.994 0 0 1 0-4.242l7.778-7.778zM621 203.5c1.657 0 3 1.347 3 3 0 1.657-1.334 3-3 3h-11c-1.657 0-3-1.347-3-3 0-1.657 1.334-3 3-3h11zm-4.762 17.496a3.002 3.002 0 0 1 0 4.242 2.994 2.994 0 0 1-4.242 0l-7.778-7.778a3.002 3.002 0 0 1 0-4.242 2.994 2.994 0 0 1 4.242 0l7.778 7.778zM600.5 230c0 1.657-1.347 3-3 3-1.657 0-3-1.334-3-3v-11c0-1.657 1.347-3 3-3 1.657 0 3 1.334 3 3v11zm-17.496-4.762a3.002 3.002 0 0 1-4.242 0 2.994 2.994 0 0 1 0-4.242l7.778-7.778a3.002 3.002 0 0 1 4.242 0 2.994 2.994 0 0 1 0 4.242l-7.778 7.778zM574 209.5c-1.657 0-3-1.347-3-3 0-1.657 1.334-3 3-3h11c1.657 0 3 1.347 3 3 0 1.657-1.334 3-3 3h-11zm4.762-17.496a3.002 3.002 0 0 1 0-4.242 2.994 2.994 0 0 1 4.242 0l7.778 7.778a3.002 3.002 0 0 1 0 4.242 2.994 2.994 0 0 1-4.242 0l-7.778-7.778z" fill="#39A9DB"/><path d="M379 35v-4.999a3 3 0 1 0-6 0V35h-4.999a3 3 0 1 0 0 6H373v4.999a3 3 0 1 0 6 0V41h4.999a3 3 0 1 0 0-6H379z" fill="#F9B233"/></g><g transform="translate(256 212.921)"><mask id="b" fill="#fff"><use xlink:href="#a"/></mask><use fill="#FFF" xlink:href="#a"/><circle stroke="#AAAFC7" stroke-width="6" cx="80" cy="80" r="83"/><path d="M34.174 142.257c0-3.319 1.453-8.277 3.48-10.876 0 0 8.33-17.499 41.641-17.499s41.64 17.499 41.64 17.499c1.923 2.688 3.481 7.547 3.481 10.876v31.266H34.174v-31.266z" stroke="#6F7592" stroke-width="5" fill="#EA515A" stroke-linejoin="round" mask="url(#b)"/></g><g transform="translate(282.654 201)"><path d="M68.622 43.019c0-9.348 7.573-16.926 16.92-16.926 9.345 0 16.92 7.572 16.92 16.926v38.055h-33.84V43.019z" stroke="#6F7592" stroke-width="5" fill="#F4D8A8"/><rect stroke="#6F7592" stroke-width="5" fill="#EAC4A9" x="43.241" y="103.439" width="18.8" height="30.752" rx="9.4"/><path d="M90.242 67.109v25.16s14.954.923 14.954-12.58-14.954-12.58-14.954-12.58z" stroke="#6F7592" stroke-width="5" fill="#EAC4A9"/><rect stroke="#6F7592" stroke-width="5" fill="#EAC4A9" x="15.04" y="17.706" width="75.202" height="98.779" rx="37.601"/><path d="M14.127 15.066C7.01 17.423 1.88 24.126 1.88 32.028v49.046h12.925V57.982c0-7.723 6.253-14.393 13.967-14.885l4.881-.312c.62.054 1.248.081 1.882.081h27.24C102.571 42.866 105.282 0 105.282 0H30.1c-8.533 0-15.494 6.665-15.973 15.066z" stroke="#6F7592" stroke-width="5" fill="#F4D8A8" stroke-linejoin="round"/><path d="M14.954 67.095v25.161S0 93.18 0 79.676s14.954-12.58 14.954-12.58z" stroke="#6F7592" stroke-width="5" fill="#EAC4A9"/><circle fill="#6F7592" cx="37" cy="71" r="4"/><circle fill="#6F7592" cx="67" cy="71" r="4"/><path d="M42.301 89.46s2.516 4.898 9.81 4.898c7.294 0 9.81-4.898 9.81-4.898" stroke="#6F7592" stroke-width="4" stroke-linecap="round" stroke-linejoin="round"/></g><path d="M341.948 343.504c.676-1.657.19-1.997-1.085-.758l-12.12 11.777c-1.276 1.24-.867 2.245.914 2.245h3.365l-3.97 9.728c-.676 1.657-.19 1.997 1.085.758l12.12-11.777c1.276-1.24.867-2.245-.914-2.245h-3.365l3.97-9.728z" fill="#F9B233"/><g transform="rotate(-11 1393.233 -782.994)"><rect stroke="#6F7592" stroke-width="6" fill="#F9FAFC" x=".591" width="79.788" height="137" rx="20"/><path fill="#E8ECF3" d="M4 18.608h73v90.518H4z"/><circle fill="#6F7592" cx="41.5" cy="122.5" r="7.5"/><rect fill="#6F7592" x="33.221" y="6.524" width="13.868" height="4.077" rx="2.039"/><g transform="translate(28 53)"><rect stroke="#6F7592" stroke-width="3" fill="#F9B233" x="8.84" y="17.387" width="8.32" height="14.613" rx="4.16"/><rect stroke="#6F7592" stroke-width="3" fill="#F9B233" x="9.36" width="6.76" height="14.613" rx="3.38"/><path d="M1.56 13.39c0-5.476 4.444-9.916 9.921-9.916H14c5.48 0 9.921 4.439 9.921 9.916v9.917H1.56V13.39z" stroke="#6F7592" stroke-width="3" fill="#F9B233"/><use fill="#F9B233" xlink:href="#c"/><rect stroke="#6F7592" stroke-width="3" x="-1.5" y="22.329" width="29" height="6.131" rx="3.066"/></g><g transform="translate(20 31)" fill="#F9B233"><rect x="18" width="4" height="12" rx="2"/><rect transform="rotate(45 33.657 11.657)" x="31.657" y="5.657" width="4" height="12" rx="2"/><rect transform="scale(-1 1) rotate(45 0 -3.657)" x="4.343" y="5.657" width="4" height="12" rx="2"/></g></g><g transform="translate(57 182)"><path d="M108.5 85.343c3.481 0 20.007 12.76 24.543 11.216 4.537-1.544-1.416-14.878 1.982-16.83 12.793-7.351 21.413-21.18 21.413-37.03 0-23.555-19.033-42.642-42.511-42.642H43.35C19.874.057.839 19.15.839 42.7c0 23.556 19.033 42.643 42.512 42.643H108.5z" stroke="#6F7592" stroke-width="6" fill="#FFF"/><rect fill="#AAAFC7" x="74" y="29" width="61.737" height="6" rx="3"/><rect fill="#AAAFC7" x="74" y="40" width="51" height="6" rx="3"/><rect fill="#AAAFC7" x="74" y="51" width="56" height="6" rx="3"/><path d="M43.5 23C32.178 23 23 31.955 23 43c0 9.475 6.759 17.391 15.824 19.458l1.919-11.435-3.86.097 2.7-18.321h10.682l-6.042 12.488 5.905-.002-11.195 17.2A21.01 21.01 0 0 0 43.5 63C54.822 63 64 54.045 64 43s-9.178-20-20.5-20z" fill="url(#d)"/></g><g transform="matrix(-1 0 0 1 575 133)"><path d="M108.5 85.343c3.481 0 20.007 12.76 24.543 11.216 4.537-1.544-1.416-14.878 1.982-16.83 12.793-7.351 21.413-21.18 21.413-37.03 0-23.555-19.033-42.642-42.511-42.642H43.35C19.874.057.839 19.15.839 42.7c0 23.556 19.033 42.643 42.512 42.643H108.5z" stroke="#6F7592" stroke-width="6" fill="#FFF"/><rect fill="#AAAFC7" x="23" y="30" width="61.737" height="6" rx="3"/><rect fill="#AAAFC7" x="23" y="52" width="61.737" height="6" rx="3"/><rect fill="#AAAFC7" x="34" y="41" width="51" height="6" rx="3"/><g transform="matrix(-1 0 0 1 137 22)"><circle fill="#02D4B1" cx="21.254" cy="21.254" r="21.254"/><path d="M14.99 21.241a1.759 1.759 0 0 0-2.586.181 2.032 2.032 0 0 0 .192 2.746l4.086 3.809a1.755 1.755 0 0 0 2.394.022l9.59-8.924c.745-.995.731-1.944.073-2.555-.658-.611-1.853-.726-2.813.196l-7.876 7.245" fill="#FFF"/></g></g><path d="M106.5 278.5V310.499c0 13.808 11.19 25.001 25 25.001h25" stroke="#DEE0EA" stroke-width="4" stroke-linecap="round" stroke-linejoin="round" stroke-dasharray="12,12"/><path d="M184 335.432c0 .884-.723 1.687-.723 1.687l-8.204 8.29a2.012 2.012 0 0 1-2.853-.005c-.79-.79-.79-2.069-.004-2.855l5.09-5.095h-21.294a2.012 2.012 0 0 1-2.012-2.022c0-1.117.907-2.023 2.012-2.023h21.158l-4.954-4.958a2.021 2.021 0 0 1 .004-2.855 2.012 2.012 0 0 1 2.853-.005l8.1 8.018s.827.938.827 1.823z" fill="#DEE0EA"/><g><path d="M424 337H469.01c18.772 0 33.99-15.218 33.99-34v-34" stroke="#DEE0EA" stroke-width="4" stroke-linecap="round" stroke-linejoin="round" stroke-dasharray="12,12"/><path d="M503.192 230c.751 0 1.434.723 1.434.723l7.046 8.204c.67.786.673 2.058-.003 2.853-.672.79-1.76.79-2.428.004l-4.33-5.09v21.294c0 1.111-.763 2.012-1.72 2.012-.949 0-1.718-.907-1.718-2.012V236.83l-4.214 4.954c-.669.786-1.756.785-2.428-.004-.676-.795-.673-2.067-.003-2.853l6.815-8.1s.797-.827 1.549-.827z" fill="#DEE0EA"/></g><g><g transform="rotate(10 -120.426 1124.803)"><mask id="f" fill="#fff"><use xlink:href="#e"/></mask><g stroke-linejoin="round"><use fill="#FFF" xlink:href="#e"/><path stroke="#AAAFC7" stroke-width="4" d="M87.809 46.584c.127-.742.191-1.5.191-2.27C88 19.837 68.075 0 43.5 0 18.735 0-1 19.471-1 44.313c0 .91.103 1.804.306 2.677l.468 2.007 1.993-.528a13.573 13.573 0 0 1 3.483-.451c4.605 0 8.815 2.313 11.32 6.088l1.666 2.512 1.667-2.512a13.557 13.557 0 0 1 11.32-6.088c4.604 0 8.815 2.313 11.319 6.088l1.666 2.512 1.667-2.512a13.557 13.557 0 0 1 11.32-6.088c4.604 0 8.815 2.313 11.319 6.088l1.667 2.512 1.666-2.512a13.557 13.557 0 0 1 11.32-6.088c.787 0 1.566.067 2.33.199l1.974.342.338-1.975z"/></g><path d="M17.343.5c12.22 7.96 27.971 24.597 26.139 53.443-4.235-4.263-13.908-13.61-26.383-.373 0-11.519.244-43.212.244-53.07z" fill="#EA515A" mask="url(#f)" transform="matrix(-1 0 0 1 60.727 0)"/><path d="M43.568.517c21.543 0 44.817 17.67 42.984 46.516-6.136 0-10.246 0-16.646 6.537 0-33.12-15.171-45.205-26.338-53.053z" fill="#EA515A" mask="url(#f)"/><path d="M44.333 1v51.5" stroke="#AAAFC7" stroke-width="4" stroke-linecap="square"/><path d="M43.797.321c12.22 7.96 27.971 24.598 26.138 53.443M43.385.5c-12.22 7.96-27.972 24.597-26.14 53.443" stroke="#AAAFC7" stroke-width="4"/><path d="M0 47l43.503 53.443M86 47l-42.497 53.443" stroke="#AAAFC7" stroke-width="4" stroke-linecap="round" stroke-linejoin="round"/></g><g transform="rotate(10 -607.597 1229.889)"><use fill="#FFF" xlink:href="#g"/><ellipse stroke="#AAAFC7" stroke-width="4" cx="17.415" cy="17.304" rx="19.415" ry="19.304"/></g><path fill="url(#h)" d="M13.66 7.568h8.874l-5.02 10.756 4.906-.002-9.428 15.017 1.631-10.075-3.205.083z" transform="rotate(10 -607.597 1229.889)"/></g><g><g transform="rotate(-14 72.29 -90.33)"><mask id="j" fill="#fff"><use xlink:href="#i"/></mask><g stroke-linejoin="round"><use fill="#FFF" xlink:href="#i"/><path stroke="#AAAFC7" stroke-width="4" d="M87.809 46.584c.127-.742.191-1.5.191-2.27C88 19.837 68.075 0 43.5 0 18.735 0-1 19.471-1 44.313c0 .91.103 1.804.306 2.677l.468 2.007 1.993-.528a13.573 13.573 0 0 1 3.483-.451c4.605 0 8.815 2.313 11.32 6.088l1.666 2.512 1.667-2.512a13.557 13.557 0 0 1 11.32-6.088c4.604 0 8.815 2.313 11.319 6.088l1.666 2.512 1.667-2.512a13.557 13.557 0 0 1 11.32-6.088c4.604 0 8.815 2.313 11.319 6.088l1.667 2.512 1.666-2.512a13.557 13.557 0 0 1 11.32-6.088c.787 0 1.566.067 2.33.199l1.974.342.338-1.975z"/></g><path d="M17.343.5c12.22 7.96 27.971 24.597 26.139 53.443-4.235-4.263-13.908-13.61-26.383-.373 0-11.519.244-43.212.244-53.07z" fill="#EA515A" mask="url(#j)" transform="matrix(-1 0 0 1 60.727 0)"/><path d="M43.568.517c21.543 0 44.817 17.67 42.984 46.516-6.136 0-10.246 0-16.646 6.537 0-33.12-15.171-45.205-26.338-53.053z" fill="#EA515A" mask="url(#j)"/><path d="M44.333 1v51.5" stroke="#AAAFC7" stroke-width="4" stroke-linecap="square"/><path d="M43.797.321c12.22 7.96 27.971 24.598 26.138 53.443M43.385.5c-12.22 7.96-27.972 24.597-26.14 53.443" stroke="#AAAFC7" stroke-width="4"/><path d="M0 47l43.503 53.443M86 47l-42.497 53.443" stroke="#AAAFC7" stroke-width="4" stroke-linecap="round" stroke-linejoin="round"/></g><g transform="rotate(-14 397.455 -236.277)"><use fill="#FFF" xlink:href="#k"/><ellipse stroke="#AAAFC7" stroke-width="4" cx="17.415" cy="17.304" rx="19.415" ry="19.304"/></g><path fill="url(#h)" d="M13.66 7.568h8.874l-5.02 10.756 4.906-.002-9.428 15.017 1.631-10.075-3.205.083z" transform="rotate(-14 397.455 -236.277)"/></g></g></svg>