<svg width="781" height="450" viewBox="0 0 781 450" xmlns="http://www.w3.org/2000/svg" xmlns:xlink="http://www.w3.org/1999/xlink"><title>9A2BDF2E-9542-45B2-B3C0-DDCE6DC9B78A</title><defs><ellipse id="a" cx="25.5" cy="25.5" rx="25.5" ry="25.5"/><ellipse id="b" cx="25.5" cy="25.5" rx="25.5" ry="25.5"/><linearGradient x1="50%" y1="113.603%" x2="50%" y2="10.868%" id="c"><stop stop-color="#F9B233" offset="0%"/><stop stop-color="#EA515A" offset="100%"/></linearGradient><rect id="d" x="66" width="17" height="33" rx="8.5"/><rect id="e" x="100" width="17" height="33" rx="8.5"/><rect id="f" x="134" width="17" height="33" rx="8.5"/><rect id="g" x="168" width="17" height="33" rx="8.5"/><rect id="h" x="203" width="17" height="33" rx="8.5"/><circle id="i" cx="43" cy="43" r="43"/><circle id="k" cx="43" cy="43" r="43"/><ellipse id="m" cx="43" cy="49" rx="43" ry="43"/><path d="M22.732 0c3.504 0 5.255 0 7.14.596a7.412 7.412 0 0 1 4.43 4.43c.597 1.886.597 3.637.597 7.141v10.565c0 3.504 0 5.255-.596 7.14a7.412 7.412 0 0 1-4.43 4.43c-1.886.597-3.638.597-7.141.597H12.167c-3.503 0-5.255 0-7.14-.596a7.412 7.412 0 0 1-4.43-4.43C0 27.987 0 26.235 0 22.732V12.167c0-3.504 0-5.255.596-7.14a7.412 7.412 0 0 1 4.43-4.43C6.912 0 8.663 0 12.167 0h10.565z" id="o"/><path d="M22.732 0c3.504 0 5.255 0 7.14.596a7.412 7.412 0 0 1 4.43 4.43c.597 1.886.597 3.637.597 7.141v10.565c0 3.504 0 5.255-.596 7.14a7.412 7.412 0 0 1-4.43 4.43c-1.886.597-3.638.597-7.141.597H12.167c-3.503 0-5.255 0-7.14-.596a7.412 7.412 0 0 1-4.43-4.43C0 27.987 0 26.235 0 22.732V12.167c0-3.504 0-5.255.596-7.14a7.412 7.412 0 0 1 4.43-4.43C6.912 0 8.663 0 12.167 0h10.565z" id="p"/></defs><g fill="none" fill-rule="evenodd"><g transform="translate(251 4)"><path d="M522 202v-4.999a3 3 0 1 0-6 0V202h-4.999a3 3 0 1 0 0 6H516v4.999a3 3 0 1 0 6 0V208h4.999a3 3 0 1 0 0-6H522z" fill="#F9B233"/><circle stroke="#EA515A" stroke-width="4" cx="274" cy="5" r="7"/><circle stroke="#39A9DB" stroke-width="4" cx="238" cy="392" r="7"/><circle stroke="#02D4B1" stroke-width="4" cx="5" cy="148" r="7"/><circle fill="#EA515A" cx="52" cy="12" r="5"/><path d="M478.5 13c0-1.657 1.347-3 3-3 1.657 0 3 1.334 3 3v11c0 1.657-1.347 3-3 3-1.657 0-3-1.334-3-3V13zm17.496 4.762a3.002 3.002 0 0 1 4.242 0 2.994 2.994 0 0 1 0 4.242l-7.778 7.778a3.002 3.002 0 0 1-4.242 0 2.994 2.994 0 0 1 0-4.242l7.778-7.778zM505 33.5c1.657 0 3 1.347 3 3 0 1.657-1.334 3-3 3h-11c-1.657 0-3-1.347-3-3 0-1.657 1.334-3 3-3h11zm-4.762 17.496a3.002 3.002 0 0 1 0 4.242 2.994 2.994 0 0 1-4.242 0l-7.778-7.778a3.002 3.002 0 0 1 0-4.242 2.994 2.994 0 0 1 4.242 0l7.778 7.778zM484.5 60c0 1.657-1.347 3-3 3-1.657 0-3-1.334-3-3V49c0-1.657 1.347-3 3-3 1.657 0 3 1.334 3 3v11zm-17.496-4.762a3.002 3.002 0 0 1-4.242 0 2.994 2.994 0 0 1 0-4.242l7.778-7.778a3.002 3.002 0 0 1 4.242 0 2.994 2.994 0 0 1 0 4.242l-7.778 7.778zM458 39.5c-1.657 0-3-1.347-3-3 0-1.657 1.334-3 3-3h11c1.657 0 3 1.347 3 3 0 1.657-1.334 3-3 3h-11zm4.762-17.496a3.002 3.002 0 0 1 0-4.242 2.994 2.994 0 0 1 4.242 0l7.778 7.778a3.002 3.002 0 0 1 0 4.242 2.994 2.994 0 0 1-4.242 0l-7.778-7.778z" fill="#02D4B1"/><path d="M145 118v-4.999a3 3 0 1 0-6 0V118h-4.999a3 3 0 1 0 0 6H139v4.999a3 3 0 1 0 6 0V124h4.999a3 3 0 1 0 0-6H145z" fill="#F9B233"/></g><path d="M271 337h-52.012c-15.19 0-27.504-12.305-27.504-20.997v-6.495c0-15.192-12.312-27.508-27.491-27.508H142" stroke="#DEE0EA" stroke-width="4" stroke-linecap="round" stroke-linejoin="round" stroke-dasharray="12,12"/><path d="M109.25 281.442c0 .751.723 1.434.723 1.434l8.204 7.046c.786.67 2.058.673 2.853-.003.79-.672.79-1.76.004-2.428l-5.09-4.33h21.294c1.111 0 2.012-.763 2.012-1.72 0-.949-.907-1.718-2.012-1.718H116.08l4.954-4.214c.786-.669.785-1.756-.004-2.428-.795-.676-2.067-.673-2.853-.003l-8.1 6.815s-.827.797-.827 1.549z" fill="#DEE0EA"/><path d="M191 284v-84.51c0-13.525-10.966-24.49-24.5-24.49H142" stroke="#DEE0EA" stroke-width="4" stroke-linecap="round" stroke-linejoin="round" stroke-dasharray="12,12"/><path d="M109.25 174.442c0 .751.723 1.434.723 1.434l8.204 7.046c.786.67 2.058.673 2.853-.003.79-.672.79-1.76.004-2.428l-5.09-4.33h21.294c1.111 0 2.012-.763 2.012-1.72 0-.949-.907-1.718-2.012-1.718H116.08l4.954-4.214c.786-.669.785-1.756-.004-2.428-.795-.676-2.067-.673-2.853-.003l-8.1 6.815s-.827.797-.827 1.549z" fill="#DEE0EA"/><path d="M271 337h-52.012c-15.19 0-27.504 12.305-27.504 20.997v6.495c0 15.192-12.312 27.508-27.491 27.508H142" stroke="#DEE0EA" stroke-width="4" stroke-linecap="round" stroke-linejoin="round" stroke-dasharray="12,12"/><path d="M109.25 392.558c0-.751.723-1.434.723-1.434l8.204-7.046c.786-.67 2.058-.673 2.853.003.79.672.79 1.76.004 2.428l-5.09 4.33h21.294c1.111 0 2.012.763 2.012 1.72 0 .949-.907 1.718-2.012 1.718H116.08l4.954 4.214c.786.669.785 1.756-.004 2.428-.795.676-2.067.673-2.853.003l-8.1-6.815s-.827-.797-.827-1.549z" fill="#DEE0EA"/><g transform="translate(249 255)"><rect fill="#DEE0EA" x="11" y="156.095" width="136.161" height="38.762" rx="19.381"/><rect stroke="#6F7592" stroke-width="6" fill="#F9FAFC" x="27.758" width="102.444" height="176" rx="20"/><path fill="#E8ECF3" d="M30.9 23.905h96.36v116.286H30.9z"/><circle fill="#6F7592" cx="80.5" cy="157.5" r="9.5"/><rect fill="#6F7592" x="69.654" y="8.381" width="17.806" height="5.238" rx="2.619"/><g transform="translate(107 56)"><use fill="#02D4B1" xlink:href="#a"/><ellipse stroke="#6F7592" stroke-width="4" cx="25.5" cy="25.5" rx="27.5" ry="27.5"/></g><path d="M126.723 80.647a2.15 2.15 0 0 0-3.136 0 2.393 2.393 0 0 0 0 3.278l4.61 4.865a2.147 2.147 0 0 0 2.886.225l11.65-11.226c.982-1.12 1.11-2.453.368-3.234-.743-.78-2.24-.812-3.476.204l-9.44 9.374-3.462-3.486z" fill="#FFF"/><g><g transform="translate(0 56)"><use fill="#EA515A" xlink:href="#b"/><ellipse stroke="#6F7592" stroke-width="4" cx="25.5" cy="25.5" rx="27.5" ry="27.5"/></g><path d="M28.195 81.368l4.956-4.956a1.994 1.994 0 0 0-.007-2.822 1.99 1.99 0 0 0-2.822-.007l-4.956 4.956-4.956-4.956a1.99 1.99 0 0 0-2.822.007 1.994 1.994 0 0 0-.006 2.822l4.956 4.956-4.956 4.956a1.994 1.994 0 0 0 .006 2.822 1.99 1.99 0 0 0 2.822.006l4.956-4.956 4.956 4.956a1.99 1.99 0 0 0 2.822-.006 1.994 1.994 0 0 0 .007-2.822l-4.956-4.956z" fill="#FFF"/></g></g><g transform="translate(432 44)"><rect fill="#DEE0EA" y="208.249" width="288.938" height="30.014" rx="15.007"/><rect stroke="#6F7592" stroke-width="6" fill="#FFF" x="20.234" y="16" width="243.614" height="206.85" rx="20"/><path d="M20.234 36.001c0-11.046 8.959-20.001 20-20.001h203.613c11.046 0 20 8.947 20 20.001V70.18H20.235V36z" stroke="#6F7592" stroke-width="6" fill="#E8ECF3"/><rect fill="#E8ECF3" x="185" y="94" width="44" height="44" rx="9"/><rect fill="#E8ECF3" x="61" y="156" width="44" height="44" rx="9"/><rect stroke="#AAAFC7" stroke-width="3" fill="#E8ECF3" stroke-linecap="round" stroke-linejoin="round" stroke-dasharray="5,5" x="61" y="94" width="44" height="44" rx="9"/><rect fill="#E8ECF3" x="185" y="156" width="44" height="44" rx="9"/><path d="M28.577 0c4.405 0 6.607 0 8.977.75a9.318 9.318 0 0 1 5.57 5.569c.749 2.37.749 4.572.749 8.977v13.281c0 4.405 0 6.606-.75 8.977a9.318 9.318 0 0 1-5.569 5.57c-2.37.749-4.573.749-8.977.749H15.296c-4.404 0-6.607 0-8.977-.75a9.318 9.318 0 0 1-5.57-5.569C0 35.184 0 32.981 0 28.577V15.296c0-4.405 0-6.607.75-8.977A9.318 9.318 0 0 1 6.318.749C8.689 0 10.89 0 15.296 0h13.281z" fill="url(#c)" transform="rotate(-11 470.801 -175.864)"/><path d="M54.634 106.725c1.245 6.4 6.74 10.883 12.985 11.118l-.236-7.97-2.531.559-.626-12.724 7.04-1.368-2.343 9.21 3.892-.757-5.12 13.054a13.779 13.779 0 0 0 3.078-.237c7.462-1.45 12.336-8.676 10.886-16.138-1.45-7.462-8.676-12.336-16.139-10.885-7.462 1.45-12.336 8.676-10.886 16.138z" fill="#FFF"/><path d="M28.577 0c4.405 0 6.607 0 8.977.75a9.318 9.318 0 0 1 5.57 5.569c.749 2.37.749 4.572.749 8.977v13.281c0 4.405 0 6.606-.75 8.977a9.318 9.318 0 0 1-5.569 5.57c-2.37.749-4.573.749-8.977.749H15.296c-4.404 0-6.607 0-8.977-.75a9.318 9.318 0 0 1-5.57-5.569C0 35.184 0 32.981 0 28.577V15.296c0-4.405 0-6.607.75-8.977A9.318 9.318 0 0 1 6.318.749C8.689 0 10.89 0 15.296 0h13.281z" fill="url(#c)" transform="translate(123 94)"/><path d="M131.36 116.125c0 6.52 4.538 11.969 10.625 13.391l1.289-7.87-2.592.067 1.813-12.61h7.172l-4.057 8.596 3.965-.002-7.517 11.838c.988.224 2.011.354 3.067.354 7.602 0 13.765-6.162 13.765-13.765 0-7.601-6.163-13.764-13.765-13.764s-13.765 6.163-13.765 13.765z" fill="#FFF"/><path d="M28.577 0c4.405 0 6.607 0 8.977.75a9.318 9.318 0 0 1 5.57 5.569c.749 2.37.749 4.572.749 8.977v13.281c0 4.405 0 6.606-.75 8.977a9.318 9.318 0 0 1-5.569 5.57c-2.37.749-4.573.749-8.977.749H15.296c-4.404 0-6.607 0-8.977-.75a9.318 9.318 0 0 1-5.57-5.569C0 35.184 0 32.981 0 28.577V15.296c0-4.405 0-6.607.75-8.977A9.318 9.318 0 0 1 6.318.749C8.689 0 10.89 0 15.296 0h13.281z" fill="url(#c)" transform="translate(123 156)"/><path d="M131.36 178.125c0 6.52 4.538 11.969 10.625 13.391l1.289-7.87-2.592.067 1.813-12.61h7.172l-4.057 8.596 3.965-.002-7.517 11.838c.988.224 2.011.354 3.067.354 7.602 0 13.765-6.162 13.765-13.765 0-7.601-6.163-13.764-13.765-13.764s-13.765 6.163-13.765 13.765z" fill="#FFF"/><use fill="#AAAFC7" xlink:href="#d"/><rect stroke="#6F7592" stroke-width="6" x="69" y="3" width="11" height="27" rx="5.5"/><g><use fill="#AAAFC7" xlink:href="#e"/><rect stroke="#6F7592" stroke-width="6" x="103" y="3" width="11" height="27" rx="5.5"/></g><g><use fill="#AAAFC7" xlink:href="#f"/><rect stroke="#6F7592" stroke-width="6" x="137" y="3" width="11" height="27" rx="5.5"/></g><g><use fill="#AAAFC7" xlink:href="#g"/><rect stroke="#6F7592" stroke-width="6" x="171" y="3" width="11" height="27" rx="5.5"/></g><g><use fill="#AAAFC7" xlink:href="#h"/><rect stroke="#6F7592" stroke-width="6" x="206" y="3" width="11" height="27" rx="5.5"/></g></g><path d="M418 336H502.493C509.4 336 515 330.405 515 323.5V311" stroke="#DEE0EA" stroke-width="4" stroke-linecap="round" stroke-linejoin="round" stroke-dasharray="12,12"/><path d="M515.442 286.75c.751 0 1.434.723 1.434.723l7.046 8.204c.67.786.673 2.058-.003 2.853-.672.79-1.76.79-2.428.004l-4.33-5.09v12.294c0 1.111-.763 2.012-1.72 2.012-.949 0-1.718-.907-1.718-2.012V293.58l-4.214 4.954c-.669.786-1.756.785-2.428-.004-.676-.795-.673-2.067-.003-2.853l6.815-8.1s.797-.827 1.549-.827z" fill="#DEE0EA"/><path d="M659.5 396h-6.003c-5.25 0-9.497 4.253-9.497 9.5 0 5.248 4.252 9.5 9.497 9.5h6.003-101 24.003c5.25 0 9.497-4.253 9.497-9.5 0-5.248-4.252-9.5-9.497-9.5H558.5h101zm92-38h-101 15.003c5.245 0 9.497 4.252 9.497 9.5 0 5.247-4.248 9.5-9.497 9.5H650.5h101-15.003c-5.245 0-9.497-4.252-9.497-9.5 0-5.247 4.248-9.5 9.497-9.5H751.5zM631 348.5c0-5.247 4.248-9.5 9.497-9.5h131.006c5.245 0 9.497 4.252 9.497 9.5 0 5.247-4.248 9.5-9.497 9.5H640.497c-5.245 0-9.497-4.252-9.497-9.5zm-80 76c0-5.247 4.25-9.5 9.498-9.5h118.004c5.246 0 9.498 4.252 9.498 9.5 0 5.247-4.25 9.5-9.498 9.5H560.498c-5.246 0-9.498-4.252-9.498-9.5zm5-38c0-5.247 4.254-9.5 9.5-9.5h191a9.5 9.5 0 0 1 9.5 9.5c0 5.247-4.254 9.5-9.5 9.5h-191a9.5 9.5 0 0 1-9.5-9.5zM206.067 61h-3.37a9.494 9.494 0 0 0-9.497 9.5c0 5.248 4.252 9.5 9.498 9.5h3.369-83.9 3.735a9.494 9.494 0 0 0 9.498-9.5c0-5.248-4.252-9.5-9.498-9.5h-3.735 83.9zm-21.6-38h-74.434 5.536c5.245 0 9.498 4.252 9.498 9.5 0 5.247-4.245 9.5-9.498 9.5h-5.536 74.434-11.036c-5.245 0-9.498-4.252-9.498-9.5 0-5.247 4.245-9.5 9.498-9.5h11.036zM62 13.5C62 8.253 66.25 4 71.49 4h126.953c5.241 0 9.49 4.252 9.49 9.5 0 5.247-4.249 9.5-9.49 9.5H71.49C66.249 23 62 18.748 62 13.5zm10.267 76c0-5.247 4.259-9.5 9.502-9.5h134.995c5.248 0 9.503 4.252 9.503 9.5 0 5.247-4.26 9.5-9.503 9.5H81.769c-5.248 0-9.502-4.252-9.502-9.5zM95 51.5c0-5.247 4.26-9.5 9.503-9.5h134.994c5.249 0 9.503 4.252 9.503 9.5 0 5.247-4.26 9.5-9.503 9.5H104.503C99.254 61 95 56.748 95 51.5z" fill="#E8ECF3"/><g transform="translate(6 239.419)"><mask id="j" fill="#fff"><use xlink:href="#i"/></mask><use fill="#FFF" xlink:href="#i"/><circle stroke="#AAAFC7" stroke-width="6" cx="43" cy="43" r="46"/><path d="M18.377 79.351c0-3.31 1.531-8.203 3.783-10.615 0 0 2.568-7.42 20.482-7.42 17.913 0 20.482 7.42 20.482 7.42 2.089 2.552 3.782 7.307 3.782 10.615v14.075H18.377V79.351z" stroke="#6F7592" stroke-width="3" fill="#EA515A" stroke-linejoin="round" mask="url(#j)"/></g><g transform="translate(20.333 233)"><path d="M36.902 23.152c0-5.028 4.073-9.103 9.099-9.103 5.025 0 9.1 4.069 9.1 9.103V43.65H36.9v-20.5z" stroke="#6F7592" stroke-width="3" fill="#BF9A7C"/><rect stroke="#6F7592" stroke-width="3" fill="#F9D6B9" x="23.253" y="55.692" width="10.11" height="16.557" rx="5.055"/><rect stroke="#6F7592" stroke-width="3" fill="#F9D6B9" x="8.088" y="9.533" width="40.44" height="53.184" rx="20.22"/><path d="M8.153 7.945c-4.112 1.09-7.142 4.835-7.142 9.287v26.419h6.95V33.287c0-5.295 4.297-9.878 9.596-10.217l.545-.034c.335.029.674.044 1.017.044h14.64C55.158 23.08 56.616 0 56.616 0H19.125c-5.12 0-9.46 3.332-10.972 7.945z" stroke="#6F7592" stroke-width="3" fill="#BF9A7C" stroke-linejoin="round"/><path d="M8.041 36.125v13.547S0 50.168 0 42.898s8.041-6.773 8.041-6.773zM48.529 36.132v13.547s8.041.497 8.041-6.774c0-7.27-8.041-6.773-8.041-6.773z" stroke="#6F7592" stroke-width="3" fill="#F9D6B9"/><circle fill="#6F7592" cx="20" cy="38" r="2"/><circle fill="#6F7592" cx="36" cy="38" r="2"/><path d="M22.748 48.166s1.353 2.637 5.275 2.637c3.923 0 5.276-2.637 5.276-2.637" stroke="#6F7592" stroke-width="3" stroke-linecap="round" stroke-linejoin="round"/></g><path d="M52.439 309.81c.36-.893.102-1.076-.579-.408l-6.464 6.341c-.68.668-.462 1.21.487 1.21h1.795l-2.117 5.237c-.36.893-.102 1.076.579.408l6.464-6.341c.68-.668.462-1.21-.487-1.21h-1.795l2.117-5.237z" fill="#F9B233"/><g><g transform="translate(6 355.419)"><mask id="l" fill="#fff"><use xlink:href="#k"/></mask><use fill="#FFF" xlink:href="#k"/><circle stroke="#AAAFC7" stroke-width="6" cx="43" cy="43" r="46"/><path d="M18.377 79.351c0-3.31 1.531-8.203 3.783-10.615 0 0 2.568-7.42 20.482-7.42 17.913 0 20.482 7.42 20.482 7.42 2.089 2.552 3.782 7.307 3.782 10.615v14.075H18.377V79.351z" stroke="#6F7592" stroke-width="3" fill="#EA515A" stroke-linejoin="round" mask="url(#l)"/></g><g transform="translate(20.333 349)"><rect stroke="#6F7592" stroke-width="3" fill="#D3B39C" x="23.253" y="55.692" width="10.11" height="16.557" rx="5.055"/><rect stroke="#6F7592" stroke-width="3" fill="#D3B39C" x="8.088" y="9.533" width="40.44" height="53.184" rx="20.22"/><path d="M33.982 6.026A4.996 4.996 0 0 1 38 4a5.007 5.007 0 0 1 4.9 4h2.325c4.533 0 8.225 3.678 8.225 8.216v27.792h-4.177V32.283c0-4.406-3.446-8.22-7.78-8.719A4.984 4.984 0 0 1 38 24.99c-2.761 0-5-2.247-5-5.001v-.178a6 6 0 0 1-10 .002v.176c0 2.762-2.244 5-5 5a4.977 4.977 0 0 1-3.252-1.203c-3.749.998-6.571 4.501-6.571 8.49V44H4V16.208c0-4.537 3.692-8.216 8.225-8.216h.877A5.007 5.007 0 0 1 18 4c1.646 0 3.107.798 4.018 2.027a6 6 0 1 1 11.964 0z" stroke="#6F7592" stroke-width="3" fill="#9B9189" stroke-linejoin="round"/><path d="M8.041 36.125v13.547S0 50.168 0 42.898s8.041-6.773 8.041-6.773zM48.529 36.132v13.547s8.041.497 8.041-6.774c0-7.27-8.041-6.773-8.041-6.773z" stroke="#6F7592" stroke-width="3" fill="#D3B39C"/><circle fill="#6F7592" cx="20" cy="38" r="2"/><circle fill="#6F7592" cx="36" cy="38" r="2"/><path d="M22.748 48.166s1.353 2.637 5.275 2.637c3.923 0 5.276-2.637 5.276-2.637" stroke="#6F7592" stroke-width="3" stroke-linecap="round" stroke-linejoin="round"/></g><path d="M52.439 425.81c.36-.893.102-1.076-.579-.408l-6.464 6.341c-.68.668-.462 1.21.487 1.21h1.795l-2.117 5.237c-.36.893-.102 1.076.579.408l6.464-6.341c.68-.668.462-1.21-.487-1.21h-1.795l2.117-5.237z" fill="#F9B233"/></g><g transform="translate(6 118)"><mask id="n" fill="#fff"><use xlink:href="#m"/></mask><use fill="#FFF" xlink:href="#m"/><ellipse stroke="#AAAFC7" stroke-width="6" cx="43" cy="49" rx="46" ry="46"/><path d="M57.997 14.049c6.63 0 12.003 5.37 12.003 12.002v60.436H15.306V14.049h42.691z" stroke="#6F7592" stroke-width="3" fill="#8D8BA5" stroke-linejoin="round" mask="url(#n)"/><path d="M18.377 85.77c0-3.31 1.531-8.203 3.783-10.616 0 0 2.568-7.42 20.482-7.42 17.913 0 20.482 7.42 20.482 7.42 2.089 2.553 3.782 7.307 3.782 10.616v14.075H18.377V85.77z" stroke="#6F7592" stroke-width="3" fill="#EA515A" stroke-linejoin="round" mask="url(#n)"/><rect stroke="#6F7592" stroke-width="3" fill="#D3B39C" mask="url(#n)" x="22.421" y="9.533" width="40.44" height="53.184" rx="20.22"/><path d="M37.587 62.19s2.527.627 5.055.627c2.527 0 5.055-.627 5.055-.627v5.03a5.024 5.024 0 0 1-5.026 5.03h-.059a5.031 5.031 0 0 1-5.025-5.03v-5.03z" stroke="#6F7592" stroke-width="3" fill="#D3B39C" mask="url(#n)"/><circle fill="#6F7592" mask="url(#n)" cx="34" cy="38" r="2"/><circle fill="#6F7592" mask="url(#n)" cx="50" cy="38" r="2"/><path d="M37.081 48.166s1.353 2.637 5.276 2.637c3.922 0 5.275-2.637 5.275-2.637" stroke="#6F7592" stroke-width="3" stroke-linecap="round" stroke-linejoin="round" mask="url(#n)"/><path d="M46.439 76.81c.36-.893.102-1.076-.579-.408l-6.464 6.341c-.68.668-.462 1.21.487 1.21h1.795l-2.117 5.237c-.36.893-.102 1.076.579.408l6.464-6.341c.68-.668.462-1.21-.487-1.21h-1.795l2.117-5.237z" fill="#F9B233" mask="url(#n)"/><path d="M22.487 7.946a9.621 9.621 0 0 0-7.143 9.299v22.012h6.951v-5.954c0-5.322 4.296-9.894 9.595-10.233l.546-.034c.334.029.673.044 1.016.044h14.64C69.491 23.08 70.95 0 70.95 0H33.459c-5.121 0-9.462 3.332-10.972 7.946z" stroke="#6F7592" stroke-width="3" fill="#8D8BA5" stroke-linejoin="round"/><path d="M22.041 33.446v13.547S14 47.49 14 40.219c0-7.27 8.041-6.773 8.041-6.773z" stroke="#6F7592" stroke-width="3" fill="#D3B39C"/></g><g><g transform="rotate(5 -3402.199 5261.136)"><use fill="url(#c)" xlink:href="#o"/><path stroke="#DEE0EA" stroke-width="4" d="M22.732-2H12.167c-4.324 0-5.51.067-7.27.55-.158.043-.316.09-.474.14-2.695.978-4.755 3.038-5.706 5.652-.078.24-.124.397-.168.555C-1.933 6.657-2 7.843-2 12.167v10.565c0 4.322.067 5.509.549 7.267.043.16.09.318.14.476.98 2.696 3.039 4.755 5.653 5.707.239.078.396.124.554.167 1.76.483 2.946.55 7.271.55h10.565c4.322 0 5.509-.067 7.267-.549.16-.043.318-.09.476-.14 2.696-.98 4.755-3.039 5.707-5.653.078-.24.125-.4.169-.56.481-1.757.548-2.944.548-7.265V12.167c0-4.324-.067-5.51-.55-7.27-.043-.158-.09-.316-.14-.474-.979-2.695-3.038-4.755-5.652-5.706-.24-.078-.397-.124-.555-.168-1.76-.482-2.946-.549-7.27-.549z"/></g><path d="M450.683 334.653c-.452 5.167 2.766 9.8 7.49 11.349l1.567-6.147-2.057-.127 2.31-9.866 5.684.497-3.811 6.53 3.142.273-6.777 8.86c.767.246 1.568.42 2.405.493 6.024.527 11.335-3.93 11.862-9.954.527-6.023-3.93-11.334-9.953-11.861-6.025-.527-11.335 3.93-11.862 9.953z" fill="#FFF"/></g><g><g transform="rotate(-5 2680.674 -1851.176)"><use fill="url(#c)" xlink:href="#p"/><path stroke="#DEE0EA" stroke-width="4" d="M22.732-2H12.167c-4.324 0-5.51.067-7.27.55-.158.043-.316.09-.474.14-2.695.978-4.755 3.038-5.706 5.652-.078.24-.124.397-.168.555C-1.933 6.657-2 7.843-2 12.167v10.565c0 4.322.067 5.509.549 7.267.043.16.09.318.14.476.98 2.696 3.039 4.755 5.653 5.707.239.078.396.124.554.167 1.76.483 2.946.55 7.271.55h10.565c4.322 0 5.509-.067 7.267-.549.16-.043.318-.09.476-.14 2.696-.98 4.755-3.039 5.707-5.653.078-.24.125-.4.169-.56.481-1.757.548-2.944.548-7.265V12.167c0-4.324-.067-5.51-.55-7.27-.043-.158-.09-.316-.14-.474-.979-2.695-3.038-4.755-5.652-5.706-.24-.078-.397-.124-.555-.168-1.76-.482-2.946-.549-7.27-.549z"/></g><path d="M179.7 243.545c.452 5.167 4.426 9.17 9.348 9.875l.475-6.326-2.048.232.562-10.117 5.684-.497-2.62 7.092 3.142-.276-5.136 9.901c.798.11 1.618.142 2.455.069 6.024-.527 10.48-5.838 9.953-11.862-.527-6.024-5.837-10.48-11.862-9.953-6.024.527-10.48 5.837-9.953 11.862z" fill="#FFF"/></g></g></svg>