<svg xmlns="http://www.w3.org/2000/svg" xmlns:xlink="http://www.w3.org/1999/xlink" width="746" height="475" viewBox="0 0 746 475"><defs><rect id="a" width="141.5" height="111.194" x="72" y="106" rx="15"/><path id="c" d="M38 35h45v63.503C83 110.928 72.93 121 60.5 121 48.074 121 38 110.924 38 98.503V35z"/><path id="d" d="M89 35h45v63.503C134 110.928 123.93 121 111.5 121 99.074 121 89 110.924 89 98.503V35z"/><path id="e" d="M140 35h45v63.503C185 110.928 174.93 121 162.5 121c-12.426 0-22.5-10.076-22.5-22.497V35z"/><path id="f" d="M191 35h45v63.503C236 110.928 225.93 121 213.5 121c-12.426 0-22.5-10.076-22.5-22.497V35z"/><path id="g" d="M241 35h45v63.503C286 110.928 275.93 121 263.5 121c-12.426 0-22.5-10.076-22.5-22.497V35z"/><path id="h" d="M292 35h45v63.503C337 110.928 326.93 121 314.5 121c-12.426 0-22.5-10.076-22.5-22.497V35z"/><rect id="i" width="328" height="19" x="23" y="16" rx="9.5"/><path id="j" d="M0 15.996C0 10.476 4.48 6 9.993 6h67.505c2.764 0 6.714 1.447 8.825 3.235l29.858 25.293c2.11 1.787 3.819 5.465 3.819 8.236v118.235c0 5.524-4.485 10.001-10 10.001H10c-5.523 0-10-4.477-10-9.996V15.996z"/><path id="k" d="M74 6h35.975c5.526 0 10.006 4.474 10.006 9.994v30.543h-3.423c-2.757 0-6.704-1.45-8.8-3.228l-29.95-25.378C75.706 16.148 74 12.46 74 9.704V6z"/><path id="l" d="M14 4.01A4.004 4.004 0 0 1 18.006 0h32.988A4.01 4.01 0 0 1 55 4.01v49.98c0 2.215-1.575 3.166-3.524 2.121L34.5 47.014l-16.976 9.097c-1.946 1.043-3.524.09-3.524-2.12V4.009z"/><linearGradient id="m" x1="49.998%" x2="49.998%" y1="140.769%" y2="-62.667%"><stop offset="0%" stop-color="#F9B233"/><stop offset="100%" stop-color="#EA515A"/></linearGradient></defs><g fill="none" fill-rule="evenodd"><path fill="#E8ECF3" d="M124.5 70h-6.003c-5.25 0-9.497 4.253-9.497 9.5 0 5.248 4.252 9.5 9.497 9.5h6.003-101 24.003C52.753 89 57 84.747 57 79.5c0-5.248-4.252-9.5-9.497-9.5H23.5h101zm92-38h-101 15.003c5.245 0 9.497 4.252 9.497 9.5 0 5.247-4.248 9.5-9.497 9.5H115.5h101-15.003c-5.245 0-9.497-4.252-9.497-9.5 0-5.247 4.248-9.5 9.497-9.5H216.5zM96 22.5c0-5.247 4.248-9.5 9.497-9.5h131.006c5.245 0 9.497 4.252 9.497 9.5 0 5.247-4.248 9.5-9.497 9.5H105.497C100.252 32 96 27.748 96 22.5zm-80 76c0-5.247 4.25-9.5 9.498-9.5h118.004c5.246 0 9.498 4.252 9.498 9.5 0 5.247-4.25 9.5-9.498 9.5H25.498C20.252 108 16 103.748 16 98.5zm5-38c0-5.247 4.254-9.5 9.5-9.5h191a9.5 9.5 0 0 1 9.5 9.5c0 5.247-4.254 9.5-9.5 9.5h-191a9.5 9.5 0 0 1-9.5-9.5z"/><path fill="#E8ECF3" stroke="#6F7592" stroke-linecap="round" stroke-linejoin="round" stroke-width="6" d="M100.283 105.154a71.584 71.584 0 0 1 21.041.04l5.578-13.14c1.725-4.064 6.422-5.958 10.488-4.232l18.409 7.814c4.067 1.726 5.964 6.425 4.24 10.484l-5.577 13.14a71.59 71.59 0 0 1 14.82 15.353l13.043-5.27c4.093-1.653 8.754.329 10.409 4.424l7.491 18.543c1.656 4.097-.326 8.76-4.415 10.412l-13.618 5.503a71.53 71.53 0 0 1-.66 20.898l13.615 5.779c4.064 1.725 5.958 6.422 4.232 10.488l-7.814 18.409c-1.726 4.067-6.425 5.964-10.484 4.24l-14.563-6.18a71.63 71.63 0 0 1-14.663 13.61l8.997 22.268-33.379 13.485-9.366-23.181a71.528 71.528 0 0 1-19.155-.565L92.3 263.147c-1.726 4.064-6.423 5.958-10.489 4.232l-18.408-7.814c-4.068-1.726-5.965-6.425-4.242-10.484l6.854-16.145a71.577 71.577 0 0 1-13.146-13.54l-15.993 6.461c-4.093 1.654-8.754-.328-10.409-4.423l-7.491-18.542c-1.655-4.097.326-8.761 4.415-10.413l15.893-6.422a71.584 71.584 0 0 1-.005-19.295L24.054 160.3c-4.064-1.726-5.958-6.423-4.232-10.489l7.814-18.408c1.726-4.068 6.425-5.965 10.484-4.242l14.751 6.262a71.543 71.543 0 0 1 14.21-14.347l-5.737-14.2c-1.654-4.093.328-8.754 4.423-10.409l18.543-7.491c4.097-1.655 8.76.326 10.412 4.415l5.561 13.763zm-2.92 102.558c16.267 6.906 35.053-.684 41.959-16.952 6.905-16.269-.685-35.055-16.953-41.96-16.268-6.905-35.054.685-41.96 16.953-6.905 16.268.685 35.054 16.953 41.96z"/><g transform="translate(372 108)"><rect width="373.919" height="38.762" y="232" fill="#DEE0EA" rx="19.381"/><rect width="282.053" height="255" x="46" fill="#FFF" stroke="#6F7592" stroke-width="6" rx="20"/><mask id="b" fill="#fff"><use xlink:href="#a"/></mask><use fill="#39A9DB" fill-opacity=".255" xlink:href="#a"/><rect width="147.5" height="117.194" x="69" y="103" stroke="#6F7592" stroke-width="6" rx="15"/><path fill="#FFF" fill-opacity=".5" d="M130.544 92h33L122 232H89zM175.544 92h11.768l-41.545 140H134z" mask="url(#b)"/><path fill="#39A9DB" fill-opacity=".255" stroke="#6F7592" stroke-width="6" d="M240 158.996c0-8.282 6.724-14.996 14.99-14.996h38.52c8.279 0 14.99 6.716 14.99 14.996v96.198H240v-96.198z"/><g stroke-linejoin="round"><use fill="#E8ECF3" xlink:href="#c"/><path stroke="#6F7592" stroke-width="6" d="M38 32h-3v66.503C35 112.583 46.418 124 60.5 124 74.585 124 86 112.585 86 98.503V32H38z"/></g><g stroke-linejoin="round"><use fill="#02D4B1" xlink:href="#d"/><path stroke="#6F7592" stroke-width="6" d="M89 32h-3v66.503C86 112.583 97.418 124 111.5 124c14.085 0 25.5-11.415 25.5-25.497V32H89z"/></g><g stroke-linejoin="round"><use fill="#E8ECF3" xlink:href="#e"/><path stroke="#6F7592" stroke-width="6" d="M140 32h-3v66.503c0 14.08 11.418 25.497 25.5 25.497 14.085 0 25.5-11.415 25.5-25.497V32h-48z"/></g><g stroke-linejoin="round"><use fill="#02D4B1" xlink:href="#f"/><path stroke="#6F7592" stroke-width="6" d="M191 32h-3v66.503c0 14.08 11.418 25.497 25.5 25.497 14.085 0 25.5-11.415 25.5-25.497V32h-48z"/></g><g stroke-linejoin="round"><use fill="#E8ECF3" xlink:href="#g"/><path stroke="#6F7592" stroke-width="6" d="M241 32h-3v66.503c0 14.08 11.418 25.497 25.5 25.497 14.085 0 25.5-11.415 25.5-25.497V32h-48z"/></g><g stroke-linejoin="round"><use fill="#02D4B1" xlink:href="#h"/><path stroke="#6F7592" stroke-width="6" d="M292 32h-3v66.503c0 14.08 11.418 25.497 25.5 25.497 14.085 0 25.5-11.415 25.5-25.497V32h-48z"/></g><g><use fill="#AAAFC7" xlink:href="#i"/><rect width="322" height="13" x="26" y="19" stroke="#6F7592" stroke-width="6" rx="6.5"/></g></g><g transform="translate(90 182)"><rect width="373.919" height="38.762" y="248.286" fill="#DEE0EA" rx="19.381"/><rect width="315.265" height="267.143" x="26.185" fill="#FFF" stroke="#6F7592" stroke-width="6" rx="20"/><path fill="#E8ECF3" stroke="#6F7592" stroke-width="6" d="M26.185 15.714C26.185 7.036 33.212 0 41.9 0h283.835c8.68 0 15.715 7.034 15.715 15.714V31.43H26.185V15.714z"/><circle cx="44.5" cy="15.5" r="6.5" fill="#F27455" stroke="#8C0000" stroke-width="4"/><circle cx="64.5" cy="15.5" r="6.5" fill="#FFC740" stroke="#967700" stroke-width="4"/><circle cx="84.5" cy="15.5" r="6.5" fill="#72D052" stroke="#248E00" stroke-width="4"/><g transform="translate(132 59)"><use fill="#F9FAFC" xlink:href="#j"/><path stroke="#AAAFC7" stroke-width="6" d="M3 15.996A6.998 6.998 0 0 1 9.993 9h67.505c2.055 0 5.317 1.196 6.886 2.524l29.858 25.293c1.44 1.22 2.758 4.061 2.758 5.947v118.235c0 3.863-3.139 7.001-7 7.001H10c-3.866 0-7-3.134-7-6.996V15.996z"/><g transform="rotate(180 96.99 26.268)"><use fill="#DEE0EA" xlink:href="#k"/><path stroke="#AAAFC7" stroke-width="6" d="M77 9h32.975c3.87 0 7.006 3.132 7.006 6.994v27.543h-.423c-2.043 0-5.304-1.197-6.861-2.517L79.748 15.642C78.318 14.43 77 11.582 77 9.704V9z"/></g><rect width="40.208" height="6" x="50" y="73" fill="#AAAFC7" rx="3"/><rect width="52.446" height="6" x="50" y="83" fill="#AAAFC7" rx="3"/><rect width="48.132" height="6" x="50" y="101" fill="#AAAFC7" rx="3"/><rect width="40.208" height="6" x="50" y="111" fill="#AAAFC7" rx="3"/><rect width="48.132" height="6" x="50" y="129" fill="#AAAFC7" rx="3"/><rect width="52.446" height="6" x="50" y="139" fill="#AAAFC7" rx="3"/><use fill="#FFF" xlink:href="#l"/><path stroke="#6F7592" stroke-width="4" d="M16 4.01C16 2.896 16.895 2 18.006 2h32.988A2.01 2.01 0 0 1 53 4.01v49.98c0 .708.034.687-.58.359L35.446 45.25l-.945-.506-.945.506L16.58 54.35c-.61.326-.579.345-.579-.358V4.009z"/><path fill="url(#m)" d="M31.243 12h8.873l-5.02 10.756 4.906-.001-9.428 15.017 1.632-10.076L29 27.78z"/><path fill="#02D4B1" d="M24.785 79.665a2.15 2.15 0 0 0-3.136 0 2.393 2.393 0 0 0 0 3.278l4.61 4.865a2.147 2.147 0 0 0 2.887.225l11.649-11.226c.982-1.12 1.11-2.453.368-3.234-.743-.78-2.24-.812-3.475.204l-9.44 9.374-3.463-3.486zM24.785 107.665a2.15 2.15 0 0 0-3.136 0 2.393 2.393 0 0 0 0 3.278l4.61 4.865a2.147 2.147 0 0 0 2.887.225l11.649-11.226c.982-1.12 1.11-2.453.368-3.234-.743-.78-2.24-.812-3.475.204l-9.44 9.374-3.463-3.486zM24.785 135.665a2.15 2.15 0 0 0-3.136 0 2.393 2.393 0 0 0 0 3.278l4.61 4.865a2.147 2.147 0 0 0 2.887.225l11.649-11.226c.982-1.12 1.11-2.453.368-3.234-.743-.78-2.24-.812-3.475.204l-9.44 9.374-3.463-3.486z"/></g></g><path stroke="#DEE0EA" stroke-dasharray="12,12" stroke-linecap="round" stroke-linejoin="round" stroke-width="4" d="M302 162V43.999C302 20.804 320.803 2 344.003 2h165.994C533.195 2 552 20.813 552 44.002v13"/><path fill="#DEE0EA" d="M551.867 82c.751 0 1.434-.723 1.434-.723l7.046-8.204c.67-.786.673-2.058-.003-2.853-.672-.79-1.76-.79-2.428-.004l-4.33 5.09V63.013c0-1.111-.763-2.012-1.72-2.012-.949 0-1.718.907-1.718 2.012V75.17l-4.214-4.954c-.669-.786-1.756-.785-2.428.004-.676.795-.673 2.067-.003 2.853l6.815 8.1s.797.827 1.549.827z"/><g transform="translate(4 14)"><path fill="#F9B233" d="M64 370v-4.999a3 3 0 1 0-6 0V370h-4.999a3 3 0 1 0 0 6H58v4.999a3 3 0 1 0 6 0V376h4.999a3 3 0 1 0 0-6H64z"/><circle cx="422" cy="29" r="7" stroke="#EA515A" stroke-width="4"/><circle cx="505" cy="431" r="7" stroke="#39A9DB" stroke-width="4"/><circle cx="5" cy="318" r="7" stroke="#02D4B1" stroke-width="4"/><circle cx="35" cy="456" r="5" fill="#EA515A"/><path fill="#39A9DB" d="M655.5 3c0-1.657 1.347-3 3-3 1.657 0 3 1.334 3 3v11c0 1.657-1.347 3-3 3-1.657 0-3-1.334-3-3V3zm17.496 4.762a3.002 3.002 0 0 1 4.242 0 2.994 2.994 0 0 1 0 4.242l-7.778 7.778a3.002 3.002 0 0 1-4.242 0 2.994 2.994 0 0 1 0-4.242l7.778-7.778zM682 23.5c1.657 0 3 1.347 3 3 0 1.657-1.334 3-3 3h-11c-1.657 0-3-1.347-3-3 0-1.657 1.334-3 3-3h11zm-4.762 17.496a3.002 3.002 0 0 1 0 4.242 2.994 2.994 0 0 1-4.242 0l-7.778-7.778a3.002 3.002 0 0 1 0-4.242 2.994 2.994 0 0 1 4.242 0l7.778 7.778zM661.5 50c0 1.657-1.347 3-3 3-1.657 0-3-1.334-3-3V39c0-1.657 1.347-3 3-3 1.657 0 3 1.334 3 3v11zm-17.496-4.762a3.002 3.002 0 0 1-4.242 0 2.994 2.994 0 0 1 0-4.242l7.778-7.778a3.002 3.002 0 0 1 4.242 0 2.994 2.994 0 0 1 0 4.242l-7.778 7.778zM635 29.5c-1.657 0-3-1.347-3-3 0-1.657 1.334-3 3-3h11c1.657 0 3 1.347 3 3 0 1.657-1.334 3-3 3h-11zm4.762-17.496a3.002 3.002 0 0 1 0-4.242 2.994 2.994 0 0 1 4.242 0l7.778 7.778a3.002 3.002 0 0 1 0 4.242 2.994 2.994 0 0 1-4.242 0l-7.778-7.778z"/><path fill="#F9B233" d="M357 91v-4.999a3 3 0 1 0-6 0V91h-4.999a3 3 0 1 0 0 6H351v4.999a3 3 0 1 0 6 0V97h4.999a3 3 0 1 0 0-6H357zM624 405v-4.999a3 3 0 1 0-6 0V405h-4.999a3 3 0 1 0 0 6H618v4.999a3 3 0 1 0 6 0V411h4.999a3 3 0 1 0 0-6H624z"/></g></g></svg>