<svg width="751" height="459" viewBox="0 0 751 459" xmlns="http://www.w3.org/2000/svg" xmlns:xlink="http://www.w3.org/1999/xlink"><title>BDB9D2BE-A1B9-4E79-8DCF-84368E0C201E</title><defs><rect id="a" x="18.375" y="39.75" width="48.625" height="41.698" rx="10"/><path d="M5.625 13.125H22.5v23.819c0 4.656-3.787 8.431-8.438 8.431-4.66 0-8.437-3.778-8.437-8.431V13.125z" id="c"/><path d="M24.75 13.125h16.875v23.819c0 4.656-3.787 8.431-8.438 8.431-4.66 0-8.437-3.778-8.437-8.431V13.125z" id="d"/><path d="M43.875 13.125H60.75v23.819c0 4.656-3.787 8.431-8.438 8.431-4.66 0-8.437-3.778-8.437-8.431V13.125z" id="e"/><path d="M63 13.125h16.875v23.819c0 4.656-3.787 8.431-8.438 8.431-4.66 0-8.437-3.778-8.437-8.431V13.125z" id="f"/><path d="M81.75 13.125h16.875v23.819c0 4.656-3.787 8.431-8.438 8.431-4.66 0-8.437-3.778-8.437-8.431V13.125z" id="g"/><path d="M100.875 13.125h16.875v23.819c0 4.656-3.787 8.431-8.438 8.431-4.66 0-8.437-3.778-8.437-8.431V13.125z" id="h"/><rect id="i" y="6" width="123" height="7.125" rx="3.563"/><ellipse id="j" cx="88.021" cy="43.172" rx="21.377" ry="26.168"/><ellipse id="k" cx="88.021" cy="43.172" rx="21.377" ry="26.168"/><ellipse id="l" cx="88.021" cy="43.172" rx="21.377" ry="26.168"/><circle id="m" cx="24.5" cy="24.5" r="24.5"/><ellipse id="n" cx="37.5" cy="37.5" rx="37.5" ry="37.5"/></defs><g fill="none" fill-rule="evenodd"><g transform="translate(4)"><path d="M436 249v-4.999a3 3 0 1 0-6 0V249h-4.999a3 3 0 1 0 0 6H430v4.999a3 3 0 1 0 6 0V255h4.999a3 3 0 1 0 0-6H436z" fill="#F9B233"/><circle stroke="#EA515A" stroke-width="4" cx="271" cy="34" r="7"/><circle stroke="#39A9DB" stroke-width="4" cx="409" cy="373" r="7"/><circle stroke="#02D4B1" stroke-width="4" cx="5" cy="147" r="7"/><circle fill="#EA515A" cx="84" cy="49" r="5"/><path d="M717.5 218c0-1.657 1.347-3 3-3 1.657 0 3 1.334 3 3v11c0 1.657-1.347 3-3 3-1.657 0-3-1.334-3-3v-11zm17.496 4.762a3.002 3.002 0 0 1 4.242 0 2.994 2.994 0 0 1 0 4.242l-7.778 7.778a3.002 3.002 0 0 1-4.242 0 2.994 2.994 0 0 1 0-4.242l7.778-7.778zM744 238.5c1.657 0 3 1.347 3 3 0 1.657-1.334 3-3 3h-11c-1.657 0-3-1.347-3-3 0-1.657 1.334-3 3-3h11zm-4.762 17.496a3.002 3.002 0 0 1 0 4.242 2.994 2.994 0 0 1-4.242 0l-7.778-7.778a3.002 3.002 0 0 1 0-4.242 2.994 2.994 0 0 1 4.242 0l7.778 7.778zM723.5 265c0 1.657-1.347 3-3 3-1.657 0-3-1.334-3-3v-11c0-1.657 1.347-3 3-3 1.657 0 3 1.334 3 3v11zm-17.496-4.762a3.002 3.002 0 0 1-4.242 0 2.994 2.994 0 0 1 0-4.242l7.778-7.778a3.002 3.002 0 0 1 4.242 0 2.994 2.994 0 0 1 0 4.242l-7.778 7.778zM697 244.5c-1.657 0-3-1.347-3-3 0-1.657 1.334-3 3-3h11c1.657 0 3 1.347 3 3 0 1.657-1.334 3-3 3h-11zm4.762-17.496a3.002 3.002 0 0 1 0-4.242 2.994 2.994 0 0 1 4.242 0l7.778 7.778a3.002 3.002 0 0 1 0 4.242 2.994 2.994 0 0 1-4.242 0l-7.778-7.778z" fill="#02D4B1"/><path d="M165 8V3.001a3 3 0 1 0-6 0V8h-4.999a3 3 0 1 0 0 6H159v4.999a3 3 0 1 0 6 0V14h4.999a3 3 0 1 0 0-6H165z" fill="#F9B233"/></g><path d="M177.283 72.154a71.584 71.584 0 0 1 21.041.04l5.578-13.14c1.725-4.064 6.422-5.958 10.488-4.232l18.409 7.814c4.067 1.726 5.964 6.425 4.24 10.484l-5.577 13.14a71.59 71.59 0 0 1 14.82 15.353l13.043-5.27c4.093-1.653 8.754.329 10.409 4.424l7.491 18.543c1.656 4.097-.326 8.76-4.415 10.412l-13.618 5.503a71.53 71.53 0 0 1-.66 20.898l13.615 5.779c4.064 1.725 5.958 6.422 4.232 10.488l-7.814 18.409c-1.726 4.067-6.425 5.964-10.484 4.24l-14.563-6.18a71.63 71.63 0 0 1-14.663 13.61l8.997 22.268-33.379 13.485-9.366-23.181a71.528 71.528 0 0 1-19.155-.565l-9.776 23.03-33.138-14.067 9.977-23.503a71.577 71.577 0 0 1-13.146-13.54l-15.993 6.461c-4.093 1.654-8.754-.328-10.409-4.423l-7.491-18.542c-1.655-4.097.326-8.761 4.415-10.413l15.893-6.422a71.584 71.584 0 0 1-.005-19.295l-15.225-6.462c-4.064-1.726-5.958-6.423-4.232-10.489l7.814-18.408c1.726-4.068 6.425-5.965 10.484-4.242l14.751 6.262a71.543 71.543 0 0 1 14.21-14.347l-5.737-14.2c-1.654-4.093.328-8.754 4.423-10.409l18.543-7.491c4.097-1.655 8.76.326 10.412 4.415l5.561 13.763zm-2.92 102.558c16.267 6.906 35.053-.684 41.959-16.952 6.905-16.269-.685-35.055-16.953-41.96-16.268-6.905-35.054.685-41.96 16.953-6.905 16.268.685 35.054 16.953 41.96z" stroke="#6F7592" stroke-width="6" fill="#E8ECF3" stroke-linecap="round" stroke-linejoin="round"/><path d="M314 186.186V68.008C314 44.808 332.805 26 355.993 26h197.014C576.2 26 595 44.795 595 67.996V263" stroke="#DEE0EA" stroke-width="4" stroke-linecap="round" stroke-linejoin="round" stroke-dasharray="12,12"/><path d="M595.867 288c.751 0 1.434-.723 1.434-.723l7.046-8.204c.67-.786.673-2.058-.003-2.853-.672-.79-1.76-.79-2.428-.004l-4.33 5.09v-12.294c0-1.111-.763-2.012-1.72-2.012-.949 0-1.718.907-1.718 2.012v12.158l-4.215-4.954c-.668-.786-1.755-.785-2.427.004-.676.795-.673 2.067-.003 2.853l6.815 8.1s.797.827 1.549.827z" fill="#DEE0EA"/><g transform="translate(36 171)"><rect fill="#DEE0EA" y="248.286" width="373.919" height="38.762" rx="19.381"/><rect stroke="#6F7592" stroke-width="6" fill="#FFF" x="26.185" width="315.265" height="267.143" rx="20"/><g transform="translate(125 65)"><rect stroke="#6F7592" stroke-width="4" fill="#FFF" x="8.625" width="105.77" height="95.625" rx="10"/><mask id="b" fill="#fff"><use xlink:href="#a"/></mask><use fill-opacity=".255" fill="#39A9DB" xlink:href="#a"/><rect stroke="#6F7592" stroke-width="4" x="16.375" y="37.75" width="52.625" height="45.698" rx="10"/><path fill-opacity=".5" fill="#FFF" mask="url(#b)" d="M40.33 34.5h12.374L37.125 87H24.75zM57.204 34.5h4.413L46.037 87h-4.412z"/><path d="M78.375 66.85c0-7.096 5.749-12.85 12.844-12.85 7.093 0 12.844 5.754 12.844 12.85v28.848H78.374V66.85z" stroke="#6F7592" stroke-width="4" fill-opacity=".255" fill="#39A9DB" stroke-linejoin="round"/><g stroke-linejoin="round"><use fill="#E8ECF3" xlink:href="#c"/><path stroke="#6F7592" stroke-width="4" d="M5.625 11.125h-2v25.819c0 5.759 4.674 10.431 10.438 10.431 5.757 0 10.437-4.673 10.437-10.431V11.125H5.625z"/></g><g stroke-linejoin="round"><use fill="#02D4B1" xlink:href="#d"/><path stroke="#6F7592" stroke-width="4" d="M24.75 11.125h-2v25.819c0 5.759 4.674 10.431 10.438 10.431 5.757 0 10.437-4.673 10.437-10.431V11.125H24.75z"/></g><g stroke-linejoin="round"><use fill="#E8ECF3" xlink:href="#e"/><path stroke="#6F7592" stroke-width="4" d="M43.875 11.125h-2v25.819c0 5.759 4.674 10.431 10.438 10.431 5.757 0 10.437-4.673 10.437-10.431V11.125H43.875z"/></g><g stroke-linejoin="round"><use fill="#02D4B1" xlink:href="#f"/><path stroke="#6F7592" stroke-width="4" d="M63 11.125h-2v25.819c0 5.759 4.674 10.431 10.438 10.431 5.757 0 10.437-4.673 10.437-10.431V11.125H63z"/></g><g stroke-linejoin="round"><use fill="#E8ECF3" xlink:href="#g"/><path stroke="#6F7592" stroke-width="4" d="M81.75 11.125h-2v25.819c0 5.759 4.674 10.431 10.438 10.431 5.757 0 10.437-4.673 10.437-10.431V11.125H81.75z"/></g><g stroke-linejoin="round"><use fill="#02D4B1" xlink:href="#h"/><path stroke="#6F7592" stroke-width="4" d="M100.875 11.125h-2v25.819c0 5.759 4.674 10.431 10.438 10.431 5.757 0 10.437-4.673 10.437-10.431V11.125h-18.875z"/></g><g><use fill="#AAAFC7" xlink:href="#i"/><rect stroke="#6F7592" stroke-width="4" x="2" y="8" width="119" height="3.125" rx="1.563"/></g></g><path d="M26.185 15.714C26.185 7.036 33.212 0 41.9 0h283.835c8.68 0 15.715 7.034 15.715 15.714V31.43H26.185V15.714z" stroke="#6F7592" stroke-width="6" fill="#E8ECF3"/><circle stroke="#8C0000" stroke-width="4" fill="#F27455" cx="44.5" cy="15.5" r="6.5"/><circle stroke="#967700" stroke-width="4" fill="#FFC740" cx="64.5" cy="15.5" r="6.5"/><circle stroke="#248E00" stroke-width="4" fill="#72D052" cx="84.5" cy="15.5" r="6.5"/><g fill-rule="nonzero" fill="#F9B233"><path d="M108.793 221.147l-8.54 4.622c-1.027.555-1.686.077-1.47-1.08l1.768-9.51-7.049-6.665c-.847-.802-.594-1.575.55-1.725l9.647-1.265 4.177-8.729c.506-1.058 1.325-1.062 1.833 0l4.177 8.729 9.648 1.265c1.15.151 1.396.924.549 1.725l-7.05 6.666 1.77 9.508c.214 1.153-.445 1.636-1.471 1.08l-8.54-4.62zM147 221.147l-8.652 4.622c-1.04.555-1.708.077-1.49-1.08l1.792-9.51-7.141-6.665c-.859-.802-.602-1.575.556-1.725l9.774-1.265 4.232-8.729c.512-1.058 1.342-1.062 1.857 0l4.231 8.729 9.774 1.265c1.166.151 1.414.924.557 1.725l-7.142 6.666 1.792 9.508c.218 1.153-.45 1.636-1.49 1.08l-8.65-4.62zM184 221.147l-8.652 4.622c-1.04.555-1.708.077-1.49-1.08l1.792-9.51-7.141-6.665c-.859-.802-.602-1.575.556-1.725l9.774-1.265 4.232-8.729c.512-1.058 1.342-1.062 1.857 0l4.231 8.729 9.774 1.265c1.166.151 1.414.924.557 1.725l-7.142 6.666 1.792 9.508c.218 1.153-.45 1.636-1.49 1.08l-8.65-4.62zM222 221.147l-8.652 4.622c-1.04.555-1.708.077-1.49-1.08l1.792-9.51-7.141-6.665c-.859-.802-.602-1.575.556-1.725l9.774-1.265 4.232-8.729c.512-1.058 1.342-1.062 1.857 0l4.231 8.729 9.774 1.265c1.166.151 1.414.924.557 1.725l-7.142 6.666 1.792 9.508c.218 1.153-.45 1.636-1.49 1.08l-8.65-4.62zM259 221.147l-8.652 4.622c-1.04.555-1.708.077-1.49-1.08l1.792-9.51-7.141-6.665c-.859-.802-.602-1.575.556-1.725l9.774-1.265 4.232-8.729c.512-1.058 1.342-1.062 1.857 0l4.231 8.729 9.774 1.265c1.166.151 1.414.924.557 1.725l-7.142 6.666 1.792 9.508c.218 1.153-.45 1.636-1.49 1.08l-8.65-4.62z"/></g></g><g transform="translate(481 301)"><rect fill="#DEE0EA" y="119" width="259" height="38.762" rx="19.381"/><rect stroke="#6F7592" stroke-width="6" fill="#DEE0EA" x="35" width="180.5" height="138" rx="20"/><rect stroke="#6F7592" stroke-width="6" fill="#E8ECF3" x="23" width="180.5" height="138" rx="20"/><rect stroke="#6F7592" stroke-width="6" fill="#FFF" x="169" y="47" width="68" height="39" rx="19.5"/><path d="M53.5 25h123M42.5 44v51M53.5 113h123" stroke="#AAAFC7" stroke-width="6" stroke-linecap="round" stroke-linejoin="round"/></g><g><g transform="rotate(-9 782.973 -2891.785)"><rect stroke="#6F7592" stroke-width="4" fill="#02D4B1" width="176.042" height="88.021" rx="20"/><path d="M167.66 62.872V25.358h-.733c-9.318 0-16.872-7.55-16.872-16.87l.001-.21H26.196v.21c0 9.317-7.545 16.87-16.871 16.87h-.523v37.514h.523c9.318 0 16.872 7.551 16.872 16.87h123.858c0-9.317 7.546-16.87 16.872-16.87h.732z" stroke="#56F0D6" stroke-width="3" fill="#02D4B1"/><use fill="#02D4B1" xlink:href="#j"/><ellipse stroke="#56F0D6" stroke-width="3" cx="88.021" cy="43.172" rx="19.877" ry="24.668"/><path d="M88.776 52c3.269 0 5.172-1.878 6.224-3.803l-2.731-1.368c-.627 1.252-1.97 2.25-3.493 2.25-1.88 0-3.38-.998-4.142-2.575h5.485v-1.832h-6.022c-.022-.208-.022-.44-.022-.672 0-.255 0-.487.044-.742h6v-1.832h-5.462c.783-1.53 2.283-2.504 4.12-2.504 1.522 0 2.865.997 3.492 2.249L95 39.78C93.948 37.832 92.045 36 88.776 36c-3.65 0-6.604 2.11-7.612 5.426H80v1.832h.828c-.022.255-.022.487-.022.742 0 .232 0 .464.022.672H80v1.832h1.142C82.127 49.867 85.104 52 88.776 52z" fill="#FFF"/></g><g transform="rotate(-4 1179.417 -6849.758)"><rect stroke="#6F7592" stroke-width="4" fill="#02D4B1" width="176.042" height="88.021" rx="20"/><path d="M167.66 62.872V25.358h-.733c-9.318 0-16.872-7.55-16.872-16.87l.001-.21H26.196v.21c0 9.317-7.545 16.87-16.871 16.87h-.523v37.514h.523c9.318 0 16.872 7.551 16.872 16.87h123.858c0-9.317 7.546-16.87 16.872-16.87h.732z" stroke="#56F0D6" stroke-width="3" fill="#02D4B1"/><use fill="#02D4B1" xlink:href="#k"/><ellipse stroke="#56F0D6" stroke-width="3" cx="88.021" cy="43.172" rx="19.877" ry="24.668"/><path d="M88.776 52c3.269 0 5.172-1.878 6.224-3.803l-2.731-1.368c-.627 1.252-1.97 2.25-3.493 2.25-1.88 0-3.38-.998-4.142-2.575h5.485v-1.832h-6.022c-.022-.208-.022-.44-.022-.672 0-.255 0-.487.044-.742h6v-1.832h-5.462c.783-1.53 2.283-2.504 4.12-2.504 1.522 0 2.865.997 3.492 2.249L95 39.78C93.948 37.832 92.045 36 88.776 36c-3.65 0-6.604 2.11-7.612 5.426H80v1.832h.828c-.022.255-.022.487-.022.742 0 .232 0 .464.022.672H80v1.832h1.142C82.127 49.867 85.104 52 88.776 52z" fill="#FFF"/></g><g transform="rotate(-10 780.573 -2771.067)"><rect stroke="#6F7592" stroke-width="4" fill="#02D4B1" width="176.042" height="88.021" rx="20"/><path d="M167.66 62.872V25.358h-.733c-9.318 0-16.872-7.55-16.872-16.87l.001-.21H26.196v.21c0 9.317-7.545 16.87-16.871 16.87h-.523v37.514h.523c9.318 0 16.872 7.551 16.872 16.87h123.858c0-9.317 7.546-16.87 16.872-16.87h.732z" stroke="#56F0D6" stroke-width="3" fill="#02D4B1"/><use fill="#02D4B1" xlink:href="#l"/><ellipse stroke="#56F0D6" stroke-width="3" cx="88.021" cy="43.172" rx="19.877" ry="24.668"/><path d="M88.776 52c3.269 0 5.172-1.878 6.224-3.803l-2.731-1.368c-.627 1.252-1.97 2.25-3.493 2.25-1.88 0-3.38-.998-4.142-2.575h5.485v-1.832h-6.022c-.022-.208-.022-.44-.022-.672 0-.255 0-.487.044-.742h6v-1.832h-5.462c.783-1.53 2.283-2.504 4.12-2.504 1.522 0 2.865.997 3.492 2.249L95 39.78C93.948 37.832 92.045 36 88.776 36c-3.65 0-6.604 2.11-7.612 5.426H80v1.832h.828c-.022.255-.022.487-.022.742 0 .232 0 .464.022.672H80v1.832h1.142C82.127 49.867 85.104 52 88.776 52z" fill="#FFF"/></g><g transform="rotate(-6 1265.397 -6259.86)"><use fill="#AAAFC7" xlink:href="#m"/><circle stroke="#6F7592" stroke-width="4" cx="24.5" cy="24.5" r="22.5"/></g><path d="M690.35 128.103c3.25-.342 4.947-2.409 5.792-4.433l-2.86-1.075c-.492 1.31-1.723 2.443-3.237 2.602-1.87.197-3.467-.638-4.389-2.127l5.455-.573-.191-1.822-5.99.63c-.044-.206-.068-.436-.092-.667-.027-.254-.051-.484-.033-.743l5.967-.627-.191-1.822-5.433.571c.62-1.604 2.01-2.729 3.835-2.92 1.514-.16 2.954.691 3.708 1.871l2.571-1.67c-1.25-1.826-3.334-3.45-6.585-3.108-3.629.382-6.347 2.79-7.003 6.192l-1.157.122.191 1.822.824-.087c.004.256.029.487.055.74.024.231.049.462.093.667l-.824.087.191 1.822 1.136-.12c1.331 3.241 4.515 5.052 8.167 4.668z" fill="#FFF"/><g transform="rotate(9 -365.365 3985.205)"><use fill="#F9B233" xlink:href="#n"/><ellipse stroke="#6F7592" stroke-width="4" cx="37.5" cy="37.5" rx="35.5" ry="35.5"/><ellipse stroke="#6F7592" stroke-width="4" cx="37" cy="37" rx="27" ry="27"/><path d="M38.457 49c5.012 0 7.93-2.817 9.543-5.704l-4.188-2.053c-.961 1.879-3.021 3.374-5.355 3.374-2.884 0-5.184-1.495-6.351-3.86h8.41v-2.748h-9.234c-.034-.313-.034-.661-.034-1.009 0-.383 0-.73.068-1.113h9.2v-2.748H32.14c1.202-2.296 3.502-3.756 6.317-3.756 2.334 0 4.394 1.495 5.355 3.374L48 30.67C46.387 27.748 43.469 25 38.457 25c-5.596 0-10.127 3.165-11.672 8.14H25v2.747h1.27c-.034.383-.034.73-.034 1.113 0 .348 0 .696.034 1.009H25v2.748h1.75C28.262 45.8 32.828 49 38.458 49z" fill="#FFF"/></g></g></g></svg>