<svg width="776" height="548" viewBox="0 0 776 548" xmlns="http://www.w3.org/2000/svg" xmlns:xlink="http://www.w3.org/1999/xlink"><title>9CB9AB35-4D71-48C3-A7A3-6843E362E6BF</title><defs><linearGradient x1="49.998%" y1="140.769%" x2="49.998%" y2="-62.667%" id="a"><stop stop-color="#F9B233" offset="0%"/><stop stop-color="#EA515A" offset="100%"/></linearGradient><rect id="b" y="23.829" width="26" height="3.131" rx="1.566"/><circle id="c" cx="43" cy="43" r="43"/><circle id="e" cx="43" cy="43" r="43"/><circle id="g" cx="43" cy="43" r="43"/><circle id="i" cx="43" cy="49" r="43"/><circle id="k" cx="43" cy="49" r="43"/><circle id="m" cx="43" cy="43" r="43"/></defs><g fill="none" fill-rule="evenodd"><path d="M108.5 153h-6.003c-5.25 0-9.497 4.253-9.497 9.5 0 5.248 4.252 9.5 9.497 9.5h6.003-101 24.003c5.25 0 9.497-4.253 9.497-9.5 0-5.248-4.252-9.5-9.497-9.5H7.5h101zm92-38h-101 15.003c5.245 0 9.497 4.252 9.497 9.5 0 5.247-4.248 9.5-9.497 9.5H99.5h101-15.003c-5.245 0-9.497-4.252-9.497-9.5 0-5.247 4.248-9.5 9.497-9.5H200.5zM80 105.5c0-5.247 4.248-9.5 9.497-9.5h131.006c5.245 0 9.497 4.252 9.497 9.5 0 5.247-4.248 9.5-9.497 9.5H89.497c-5.245 0-9.497-4.252-9.497-9.5zm-80 76c0-5.247 4.25-9.5 9.498-9.5h118.004c5.246 0 9.498 4.252 9.498 9.5 0 5.247-4.25 9.5-9.498 9.5H9.498C4.252 191 0 186.748 0 181.5zm5-38c0-5.247 4.254-9.5 9.5-9.5h191a9.5 9.5 0 0 1 9.5 9.5c0 5.247-4.254 9.5-9.5 9.5h-191a9.5 9.5 0 0 1-9.5-9.5zM733.067 448h-83.9 3.735c5.246 0 9.498 4.252 9.498 9.5 0 5.247-4.245 9.5-9.498 9.5h-3.735 83.9-3.37c-5.245 0-9.497-4.252-9.497-9.5 0-5.247 4.245-9.5 9.498-9.5h3.369zm-21.6-38h-74.434 5.536c5.245 0 9.498 4.252 9.498 9.5 0 5.247-4.245 9.5-9.498 9.5h-5.536 74.434-11.036c-5.245 0-9.498-4.252-9.498-9.5 0-5.247 4.245-9.5 9.498-9.5h11.036zM589 400.5c0-5.247 4.25-9.5 9.49-9.5h126.953c5.241 0 9.49 4.252 9.49 9.5 0 5.247-4.249 9.5-9.49 9.5H598.49c-5.242 0-9.491-4.252-9.491-9.5zm10.267 76c0-5.247 4.259-9.5 9.502-9.5h134.995c5.248 0 9.503 4.252 9.503 9.5 0 5.247-4.26 9.5-9.503 9.5H608.769c-5.248 0-9.502-4.252-9.502-9.5zm22.733-38c0-5.247 4.26-9.5 9.503-9.5h134.994c5.249 0 9.503 4.252 9.503 9.5 0 5.247-4.26 9.5-9.503 9.5H631.503c-5.249 0-9.503-4.252-9.503-9.5z" fill="#E8ECF3"/><path d="M396 362v-88" stroke="#DEE0EA" stroke-width="4" stroke-linecap="round" stroke-linejoin="round" stroke-dasharray="12,12"/><path d="M395.568 399c-.884 0-1.687-.723-1.687-.723l-8.29-8.204a2.012 2.012 0 0 1 .005-2.853c.79-.79 2.069-.79 2.855-.004l5.095 5.09v-21.294c0-1.111.898-2.012 2.022-2.012 1.117 0 2.023.907 2.023 2.012v21.158l4.958-4.954a2.021 2.021 0 0 1 2.855.004c.796.795.792 2.067.005 2.853l-8.018 8.1s-.938.827-1.823.827z" fill="#DEE0EA"/><path d="M396 186v88" stroke="#DEE0EA" stroke-width="4" stroke-linecap="round" stroke-linejoin="round" stroke-dasharray="12,12"/><path d="M395.568 149c-.884 0-1.687.723-1.687.723l-8.29 8.204a2.012 2.012 0 0 0 .005 2.853c.79.79 2.069.79 2.855.004l5.095-5.09v21.294c0 1.111.898 2.012 2.022 2.012a2.021 2.021 0 0 0 2.023-2.012V155.83l4.958 4.954a2.021 2.021 0 0 0 2.855-.004 2.012 2.012 0 0 0 .005-2.853l-8.018-8.1s-.938-.827-1.823-.827z" fill="#DEE0EA"/><path d="M592 238v16.5c0 9.113-7.388 16.5-16.492 16.5H405M592 316v-16.5c0-9.113-7.388-16.5-16.492-16.5H405" stroke="#DEE0EA" stroke-width="4" stroke-linecap="round" stroke-linejoin="round" stroke-dasharray="12,12"/><path d="M592.002 232.615c-1.335 0-1.964.84-1.964.84l-7.449 8.1a2.012 2.012 0 0 0 .005 2.852c.79.79 2.07.79 2.855.005l4.589-5.268h3.936l4.575 5.268a2.021 2.021 0 0 0 2.855-.005 2.012 2.012 0 0 0 .005-2.853l-7.435-8.1s-.638-.84-1.972-.84zM592.002 319c-1.335 0-1.964-.84-1.964-.84l-7.449-8.1a2.012 2.012 0 0 1 .005-2.853c.79-.789 2.07-.79 2.855-.004l4.589 5.267h3.936l4.575-5.267a2.021 2.021 0 0 1 2.855.004c.796.795.792 2.067.005 2.853l-7.435 8.1s-.638.84-1.972.84z" fill="#DEE0EA"/><path d="M198 238v16.5c0 9.113 7.388 16.5 16.492 16.5H385M198 316v-16.5c0-9.113 7.388-16.5 16.492-16.5H385" stroke="#DEE0EA" stroke-width="4" stroke-linecap="round" stroke-linejoin="round" stroke-dasharray="12,12"/><path d="M197.998 232.615c1.335 0 1.964.84 1.964.84l7.449 8.1a2.012 2.012 0 0 1-.005 2.852c-.79.79-2.07.79-2.855.005l-4.589-5.268h-3.936l-4.575 5.268a2.021 2.021 0 0 1-2.855-.005 2.012 2.012 0 0 1-.005-2.853l7.435-8.1s.638-.84 1.972-.84zM197.998 319c1.335 0 1.964-.84 1.964-.84l7.449-8.1a2.012 2.012 0 0 0-.005-2.853c-.79-.789-2.07-.79-2.855-.004l-4.589 5.267h-3.936l-4.575-5.267a2.021 2.021 0 0 0-2.855.004 2.012 2.012 0 0 0-.005 2.853l7.435 8.1s.638.84 1.972.84z" fill="#DEE0EA"/><g transform="translate(299 153)"><rect stroke="#6F7592" stroke-width="6" fill="#F9FAFC" x="56.591" y="55" width="79.788" height="137" rx="20"/><path fill="#E8ECF3" d="M60 73.608h73v90.518H60z"/><circle fill="#6F7592" cx="97.5" cy="177.5" r="7.5"/><rect fill="#6F7592" x="89.221" y="61.524" width="13.868" height="4.077" rx="2.039"/><ellipse fill="#FFF" cx="96.889" cy="116.105" rx="18.303" ry="18.293"/><path fill="url(#a)" d="M93.406 105.597h9.325l-5.275 11.37 5.155-.001-9.908 15.875 1.714-10.651-3.369.087z"/><g stroke="#6F7592" stroke-width="6" stroke-linecap="round" stroke-linejoin="round"><path d="M128 34.02s14.225-.872 23.273 8.93c9.049 9.802 7.922 24.231 7.922 24.231M127.62.643s29.142-1.787 47.68 18.294c18.536 20.081 16.228 49.642 16.228 49.642"/></g><g stroke="#6F7592" stroke-width="6" stroke-linecap="round" stroke-linejoin="round"><path d="M128 207.98s14.225.872 23.273-8.93c9.049-9.802 7.922-24.231 7.922-24.231M127.62 241.357s29.142 1.787 47.68-18.294c18.536-20.081 16.228-49.642 16.228-49.642"/></g><g stroke="#6F7592" stroke-width="6" stroke-linecap="round" stroke-linejoin="round"><path d="M64 207.98s-14.225.872-23.273-8.93c-9.049-9.802-7.922-24.231-7.922-24.231M64.38 241.357s-29.142 1.787-47.68-18.294C-1.835 202.982.473 173.42.473 173.42"/></g></g><g transform="translate(251 166)"><path d="M88.5 85.343c3.481 0 20.007 12.76 24.543 11.216 4.537-1.544-1.416-14.878 1.982-16.83 12.793-7.351 21.413-21.18 21.413-37.03 0-23.555-19.033-42.642-42.511-42.642H42.51C19.034.057 0 19.15 0 42.7c0 23.556 19.033 42.643 42.511 42.643H88.5z" stroke="#6F7592" stroke-width="5" fill="#FFF"/><rect fill="#EA515A" x="57" y="30" width="61.737" height="5" rx="2.5"/><rect fill="#EA515A" x="57" y="40" width="51" height="5" rx="2.5"/><rect fill="#EA515A" x="57" y="50" width="57" height="5" rx="2.5"/></g><g transform="translate(272 192)"><rect stroke="#6F7592" stroke-width="3" fill="#F9B233" x="8.84" y="17.387" width="8.32" height="14.613" rx="4.16"/><rect stroke="#6F7592" stroke-width="3" fill="#F9B233" x="9.36" width="6.76" height="14.613" rx="3.38"/><path d="M1.56 13.39c0-5.476 4.444-9.916 9.921-9.916H14c5.48 0 9.921 4.439 9.921 9.916v9.917H1.56V13.39z" stroke="#6F7592" stroke-width="3" fill="#F9B233"/><use fill="#F9B233" xlink:href="#b"/><rect stroke="#6F7592" stroke-width="3" x="-1.5" y="22.329" width="29" height="6.131" rx="3.066"/></g><g><g transform="translate(352 8.419)"><mask id="d" fill="#fff"><use xlink:href="#c"/></mask><use fill="#FFF" xlink:href="#c"/><circle stroke="#AAAFC7" stroke-width="6" cx="43" cy="43" r="46"/><path d="M18.377 79.351c0-3.31 1.531-8.203 3.783-10.615 0 0 2.568-7.42 20.482-7.42 17.913 0 20.482 7.42 20.482 7.42 2.089 2.552 3.782 7.307 3.782 10.615v14.075H18.377V79.351z" stroke="#6F7592" stroke-width="3" fill="#EA515A" stroke-linejoin="round" mask="url(#d)"/></g><g transform="translate(366.333 2)"><path d="M36.902 23.152c0-5.028 4.073-9.103 9.099-9.103 5.025 0 9.1 4.069 9.1 9.103V43.65H36.9v-20.5z" stroke="#6F7592" stroke-width="3" fill="#F4D8A8"/><rect stroke="#6F7592" stroke-width="3" fill="#EAC4A9" x="23.253" y="55.692" width="10.11" height="16.557" rx="5.055"/><rect stroke="#6F7592" stroke-width="3" fill="#EAC4A9" x="8.088" y="9.533" width="40.44" height="53.184" rx="20.22"/><path d="M8.153 7.945c-4.112 1.09-7.142 4.835-7.142 9.287v26.419h6.95V33.287c0-5.295 4.297-9.878 9.596-10.217l.545-.034c.335.029.674.044 1.017.044h14.64C55.158 23.08 56.616 0 56.616 0H19.125c-5.12 0-9.46 3.332-10.972 7.945z" stroke="#6F7592" stroke-width="3" fill="#F4D8A8" stroke-linejoin="round"/><path d="M8.041 36.125v13.547S0 50.168 0 42.898s8.041-6.773 8.041-6.773zM48.529 36.132v13.547s8.041.497 8.041-6.774c0-7.27-8.041-6.773-8.041-6.773z" stroke="#6F7592" stroke-width="3" fill="#EAC4A9"/><circle fill="#6F7592" cx="20" cy="38" r="2"/><circle fill="#6F7592" cx="36" cy="38" r="2"/><path d="M22.748 48.166s1.353 2.637 5.275 2.637c3.923 0 5.276-2.637 5.276-2.637" stroke="#6F7592" stroke-width="3" stroke-linecap="round" stroke-linejoin="round"/></g><path d="M398.439 78.81c.36-.893.102-1.076-.579-.408l-6.464 6.341c-.68.668-.462 1.21.487 1.21h1.795l-2.117 5.237c-.36.893-.102 1.076.579.408l6.464-6.341c.68-.668.462-1.21-.487-1.21h-1.795l2.117-5.237z" fill="#F9B233"/><g transform="translate(400 58)"><rect fill="#02D4B1" transform="rotate(45 50.067 7.64)" x="47.067" y="1.14" width="6" height="13" rx="3"/><rect fill="#02D4B1" transform="rotate(90 58.5 29)" x="55.5" y="22.5" width="6" height="13" rx="3"/><rect fill="#02D4B1" transform="rotate(135 49.36 50.067)" x="46.36" y="43.567" width="6" height="13" rx="3"/><rect fill="#02D4B1" transform="rotate(-180 28 58.5)" x="25" y="52" width="6" height="13" rx="3"/><rect fill="#02D4B1" transform="rotate(-135 6.933 49.36)" x="3.933" y="42.86" width="6" height="13" rx="3"/><circle fill="#02D4B1" cx="28.5" cy="28.5" r="14.5"/><path d="M25.07 28.219a1.2 1.2 0 0 0-1.763.123 1.387 1.387 0 0 0 .13 1.874l2.788 2.598c.476.44 1.172.434 1.633.015l6.543-6.088c.508-.679.499-1.326.05-1.743-.45-.417-1.264-.495-1.92.134l-5.373 4.943-2.087-1.856z" fill="#FFF"/></g></g><g><g transform="translate(352 455.419)"><mask id="f" fill="#fff"><use xlink:href="#e"/></mask><use fill="#FFF" xlink:href="#e"/><circle stroke="#AAAFC7" stroke-width="6" cx="43" cy="43" r="46"/><path d="M18.377 79.351c0-3.31 1.531-8.203 3.783-10.615 0 0 2.568-7.42 20.482-7.42 17.913 0 20.482 7.42 20.482 7.42 2.089 2.552 3.782 7.307 3.782 10.615v14.075H18.377V79.351z" stroke="#6F7592" stroke-width="3" fill="#EA515A" stroke-linejoin="round" mask="url(#f)"/></g><g transform="translate(366.333 449)"><path d="M36.902 23.152c0-5.028 4.073-9.103 9.099-9.103 5.025 0 9.1 4.069 9.1 9.103V43.65H36.9v-20.5z" stroke="#6F7592" stroke-width="3" fill="#BF9A7C"/><rect stroke="#6F7592" stroke-width="3" fill="#F9D6B9" x="23.253" y="55.692" width="10.11" height="16.557" rx="5.055"/><rect stroke="#6F7592" stroke-width="3" fill="#F9D6B9" x="8.088" y="9.533" width="40.44" height="53.184" rx="20.22"/><path d="M8.153 7.945c-4.112 1.09-7.142 4.835-7.142 9.287v26.419h6.95V33.287c0-5.295 4.297-9.878 9.596-10.217l.545-.034c.335.029.674.044 1.017.044h14.64C55.158 23.08 56.616 0 56.616 0H19.125c-5.12 0-9.46 3.332-10.972 7.945z" stroke="#6F7592" stroke-width="3" fill="#BF9A7C" stroke-linejoin="round"/><path d="M8.041 36.125v13.547S0 50.168 0 42.898s8.041-6.773 8.041-6.773zM48.529 36.132v13.547s8.041.497 8.041-6.774c0-7.27-8.041-6.773-8.041-6.773z" stroke="#6F7592" stroke-width="3" fill="#F9D6B9"/><circle fill="#6F7592" cx="20" cy="38" r="2"/><circle fill="#6F7592" cx="36" cy="38" r="2"/><path d="M22.748 48.166s1.353 2.637 5.275 2.637c3.923 0 5.276-2.637 5.276-2.637" stroke="#6F7592" stroke-width="3" stroke-linecap="round" stroke-linejoin="round"/></g><path d="M398.439 525.81c.36-.893.102-1.076-.579-.408l-6.464 6.341c-.68.668-.462 1.21.487 1.21h1.795l-2.117 5.237c-.36.893-.102 1.076.579.408l6.464-6.341c.68-.668.462-1.21-.487-1.21h-1.795l2.117-5.237z" fill="#F9B233"/></g><g><g transform="translate(547 339.419)"><mask id="h" fill="#fff"><use xlink:href="#g"/></mask><use fill="#FFF" xlink:href="#g"/><circle stroke="#AAAFC7" stroke-width="6" cx="43" cy="43" r="46"/><path d="M18.377 79.351c0-3.31 1.531-8.203 3.783-10.615 0 0 2.568-7.42 20.482-7.42 17.913 0 20.482 7.42 20.482 7.42 2.089 2.552 3.782 7.307 3.782 10.615v14.075H18.377V79.351z" stroke="#6F7592" stroke-width="3" fill="#EA515A" stroke-linejoin="round" mask="url(#h)"/></g><g transform="translate(561.333 333)"><rect stroke="#6F7592" stroke-width="3" fill="#D3B39C" x="23.253" y="55.692" width="10.11" height="16.557" rx="5.055"/><rect stroke="#6F7592" stroke-width="3" fill="#D3B39C" x="8.088" y="9.533" width="40.44" height="53.184" rx="20.22"/><path d="M33.982 6.026A4.996 4.996 0 0 1 38 4a5.007 5.007 0 0 1 4.9 4h2.325c4.533 0 8.225 3.678 8.225 8.216v27.792h-4.177V32.283c0-4.406-3.446-8.22-7.78-8.719A4.984 4.984 0 0 1 38 24.99c-2.761 0-5-2.247-5-5.001v-.178a6 6 0 0 1-10 .002v.176c0 2.762-2.244 5-5 5a4.977 4.977 0 0 1-3.252-1.203c-3.749.998-6.571 4.501-6.571 8.49V44H4V16.208c0-4.537 3.692-8.216 8.225-8.216h.877A5.007 5.007 0 0 1 18 4c1.646 0 3.107.798 4.018 2.027a6 6 0 1 1 11.964 0z" stroke="#6F7592" stroke-width="3" fill="#9B9189" stroke-linejoin="round"/><path d="M8.041 36.125v13.547S0 50.168 0 42.898s8.041-6.773 8.041-6.773zM48.529 36.132v13.547s8.041.497 8.041-6.774c0-7.27-8.041-6.773-8.041-6.773z" stroke="#6F7592" stroke-width="3" fill="#D3B39C"/><circle fill="#6F7592" cx="20" cy="38" r="2"/><circle fill="#6F7592" cx="36" cy="38" r="2"/><path d="M22.748 48.166s1.353 2.637 5.275 2.637c3.923 0 5.276-2.637 5.276-2.637" stroke="#6F7592" stroke-width="3" stroke-linecap="round" stroke-linejoin="round"/></g><path d="M593.439 409.81c.36-.893.102-1.076-.579-.408l-6.464 6.341c-.68.668-.462 1.21.487 1.21h1.795l-2.117 5.237c-.36.893-.102 1.076.579.408l6.464-6.341c.68-.668.462-1.21-.487-1.21h-1.795l2.117-5.237z" fill="#F9B233"/></g><g transform="translate(547 123)"><mask id="j" fill="#fff"><use xlink:href="#i"/></mask><use fill="#FFF" xlink:href="#i"/><circle stroke="#AAAFC7" stroke-width="6" cx="43" cy="49" r="46"/><path d="M57.997 14.049c6.63 0 12.003 5.37 12.003 12.002v60.436H15.306V14.049h42.691z" stroke="#6F7592" stroke-width="3" fill="#F4D8A8" stroke-linejoin="round" mask="url(#j)"/><path d="M18.377 85.77c0-3.31 1.531-8.203 3.783-10.616 0 0 2.568-7.42 20.482-7.42 17.913 0 20.482 7.42 20.482 7.42 2.089 2.553 3.782 7.307 3.782 10.616v14.075H18.377V85.77z" stroke="#6F7592" stroke-width="3" fill="#EA515A" stroke-linejoin="round" mask="url(#j)"/><rect stroke="#6F7592" stroke-width="3" fill="#EAC4A9" mask="url(#j)" x="22.421" y="9.533" width="40.44" height="53.184" rx="20.22"/><path d="M37.587 62.19s2.527.627 5.055.627c2.527 0 5.055-.627 5.055-.627v5.03a5.024 5.024 0 0 1-5.026 5.03h-.059a5.031 5.031 0 0 1-5.025-5.03v-5.03z" stroke="#6F7592" stroke-width="3" fill="#EAC4A9" mask="url(#j)"/><circle fill="#6F7592" mask="url(#j)" cx="34" cy="38" r="2"/><circle fill="#6F7592" mask="url(#j)" cx="50" cy="38" r="2"/><path d="M37.081 48.166s1.353 2.637 5.276 2.637c3.922 0 5.275-2.637 5.275-2.637" stroke="#6F7592" stroke-width="3" stroke-linecap="round" stroke-linejoin="round" mask="url(#j)"/><path d="M46.439 76.81c.36-.893.102-1.076-.579-.408l-6.464 6.341c-.68.668-.462 1.21.487 1.21h1.795l-2.117 5.237c-.36.893-.102 1.076.579.408l6.464-6.341c.68-.668.462-1.21-.487-1.21h-1.795l2.117-5.237z" fill="#F9B233" mask="url(#j)"/><path d="M22.487 7.946a9.621 9.621 0 0 0-7.143 9.299v22.012h6.951v-5.954c0-5.322 4.296-9.894 9.595-10.233l.546-.034c.334.029.673.044 1.016.044h14.64C69.491 23.08 70.95 0 70.95 0H33.459c-5.121 0-9.462 3.332-10.972 7.946z" stroke="#6F7592" stroke-width="3" fill="#F4D8A8" stroke-linejoin="round"/><path d="M22.041 33.446v13.547S14 47.49 14 40.219c0-7.27 8.041-6.773 8.041-6.773z" stroke="#6F7592" stroke-width="3" fill="#EAC4A9"/></g><g transform="translate(157 333)"><mask id="l" fill="#fff"><use xlink:href="#k"/></mask><use fill="#FFF" xlink:href="#k"/><circle stroke="#AAAFC7" stroke-width="6" cx="43" cy="49" r="46"/><path d="M57.997 14.049c6.63 0 12.003 5.37 12.003 12.002v60.436H15.306V14.049h42.691z" stroke="#6F7592" stroke-width="3" fill="#8D8BA5" stroke-linejoin="round" mask="url(#l)"/><path d="M18.377 85.77c0-3.31 1.531-8.203 3.783-10.616 0 0 2.568-7.42 20.482-7.42 17.913 0 20.482 7.42 20.482 7.42 2.089 2.553 3.782 7.307 3.782 10.616v14.075H18.377V85.77z" stroke="#6F7592" stroke-width="3" fill="#EA515A" stroke-linejoin="round" mask="url(#l)"/><rect stroke="#6F7592" stroke-width="3" fill="#D3B39C" mask="url(#l)" x="22.421" y="9.533" width="40.44" height="53.184" rx="20.22"/><path d="M37.587 62.19s2.527.627 5.055.627c2.527 0 5.055-.627 5.055-.627v5.03a5.024 5.024 0 0 1-5.026 5.03h-.059a5.031 5.031 0 0 1-5.025-5.03v-5.03z" stroke="#6F7592" stroke-width="3" fill="#D3B39C" mask="url(#l)"/><circle fill="#6F7592" mask="url(#l)" cx="34" cy="38" r="2"/><circle fill="#6F7592" mask="url(#l)" cx="50" cy="38" r="2"/><path d="M37.081 48.166s1.353 2.637 5.276 2.637c3.922 0 5.275-2.637 5.275-2.637" stroke="#6F7592" stroke-width="3" stroke-linecap="round" stroke-linejoin="round" mask="url(#l)"/><path d="M46.439 76.81c.36-.893.102-1.076-.579-.408l-6.464 6.341c-.68.668-.462 1.21.487 1.21h1.795l-2.117 5.237c-.36.893-.102 1.076.579.408l6.464-6.341c.68-.668.462-1.21-.487-1.21h-1.795l2.117-5.237z" fill="#F9B233" mask="url(#l)"/><path d="M22.487 7.946a9.621 9.621 0 0 0-7.143 9.299v22.012h6.951v-5.954c0-5.322 4.296-9.894 9.595-10.233l.546-.034c.334.029.673.044 1.016.044h14.64C69.491 23.08 70.95 0 70.95 0H33.459c-5.121 0-9.462 3.332-10.972 7.946z" stroke="#6F7592" stroke-width="3" fill="#8D8BA5" stroke-linejoin="round"/><path d="M22.041 33.446v13.547S14 47.49 14 40.219c0-7.27 8.041-6.773 8.041-6.773z" stroke="#6F7592" stroke-width="3" fill="#D3B39C"/></g><g><g transform="translate(157 128.419)"><mask id="n" fill="#fff"><use xlink:href="#m"/></mask><use fill="#FFF" xlink:href="#m"/><circle stroke="#AAAFC7" stroke-width="6" cx="43" cy="43" r="46"/><path d="M18.377 79.351c0-3.31 1.531-8.203 3.783-10.615 0 0 2.568-7.42 20.482-7.42 17.913 0 20.482 7.42 20.482 7.42 2.089 2.552 3.782 7.307 3.782 10.615v14.075H18.377V79.351z" stroke="#6F7592" stroke-width="3" fill="#EA515A" stroke-linejoin="round" mask="url(#n)"/></g><g transform="translate(171.333 122)"><path d="M36.902 23.152c0-5.028 4.073-9.103 9.099-9.103 5.025 0 9.1 4.069 9.1 9.103V43.65H36.9v-20.5z" stroke="#6F7592" stroke-width="3" fill="#BA9590"/><rect stroke="#6F7592" stroke-width="3" fill="#FCDBCD" x="23.253" y="55.692" width="10.11" height="16.557" rx="5.055"/><rect stroke="#6F7592" stroke-width="3" fill="#FCDBCD" x="8.088" y="9.533" width="40.44" height="53.184" rx="20.22"/><path d="M8.153 7.945c-4.112 1.09-7.142 4.835-7.142 9.287v26.419h6.95V33.287c0-5.295 4.297-9.878 9.596-10.217l.545-.034c.335.029.674.044 1.017.044h14.64C55.158 23.08 56.616 0 56.616 0H19.125c-5.12 0-9.46 3.332-10.972 7.945z" stroke="#6F7592" stroke-width="3" fill="#BA9590" stroke-linejoin="round"/><path d="M8.041 36.125v13.547S0 50.168 0 42.898s8.041-6.773 8.041-6.773zM48.529 36.132v13.547s8.041.497 8.041-6.774c0-7.27-8.041-6.773-8.041-6.773z" stroke="#6F7592" stroke-width="3" fill="#FCDBCD"/><path d="M9.167 36h38" stroke="#6F7592" stroke-width="2" stroke-linecap="square"/><path d="M12.667 34h13v4.998a3 3 0 0 1-3 3.002h-7.002a2.997 2.997 0 0 1-2.998-3.002V34zM30.667 34h13v4.998a3 3 0 0 1-3 3.002h-7.002a2.997 2.997 0 0 1-2.998-3.002V34z" stroke="#6F7592" stroke-width="2" fill="#FFF"/><circle fill="#6F7592" cx="19" cy="38" r="2"/><circle fill="#6F7592" cx="37" cy="38" r="2"/><path d="M22.748 48.166s1.353 2.637 5.275 2.637c3.923 0 5.276-2.637 5.276-2.637" stroke="#6F7592" stroke-width="3" stroke-linecap="round" stroke-linejoin="round"/></g><path d="M203.439 198.81c.36-.893.102-1.076-.579-.408l-6.464 6.341c-.68.668-.462 1.21.487 1.21h1.795l-2.117 5.237c-.36.893-.102 1.076.579.408l6.464-6.341c.68-.668.462-1.21-.487-1.21h-1.795l2.117-5.237z" fill="#F9B233"/></g></g></svg>