<svg width="900" height="600" viewBox="0 0 900 600" xmlns="http://www.w3.org/2000/svg" xmlns:xlink="http://www.w3.org/1999/xlink"><title>2D470B33-2980-4724-9379-74CC5EBBD867</title><defs><rect id="a" x="13" width="230" height="28" rx="14"/><linearGradient x1="49.998%" y1="140.769%" x2="49.998%" y2="-62.667%" id="b"><stop stop-color="#F9B233" offset="0%"/><stop stop-color="#EA515A" offset="100%"/></linearGradient><path d="M151.937 155.81c43.014 0 77.888-34.88 77.888-77.905C229.825 34.87 194.953 0 151.937 0H77.888C34.874 0 0 34.88 0 77.905c0 43.035 34.872 77.905 77.888 77.905h11.987c2.766 0 6.594 1.587 8.538 3.531l8.237 8.237c4.562 4.562 11.962 4.563 16.525 0l8.237-8.237c1.95-1.95 5.77-3.53 8.538-3.53h11.987z" id="c"/></defs><g fill="none" fill-rule="evenodd"><g transform="translate(756 117)"><rect stroke="#6F7592" stroke-width="6" fill="#F9FAFC" width="102.444" height="176" rx="20"/><path fill="#E8ECF3" d="M3 24h96.36v116.286H3z"/><circle fill="#6F7592" cx="50.5" cy="157.5" r="9.5"/><rect fill="#6F7592" x="42" y="8" width="17.806" height="5.238" rx="2.619"/><ellipse fill="#02D4B1" cx="50.5" cy="85.5" rx="25.5" ry="25.5"/><path d="M44.723 84.647a2.15 2.15 0 0 0-3.136 0 2.393 2.393 0 0 0 0 3.278l4.61 4.865a2.147 2.147 0 0 0 2.886.225l11.65-11.226c.982-1.12 1.11-2.453.368-3.234-.743-.78-2.24-.812-3.476.204l-9.44 9.374-3.462-3.486z" fill="#FFF"/></g><path d="M202.5 373h-6.003c-5.25 0-9.497 4.253-9.497 9.5 0 5.248 4.252 9.5 9.497 9.5h6.003-101 24.003c5.25 0 9.497-4.253 9.497-9.5 0-5.248-4.252-9.5-9.497-9.5H101.5h101zm92-38h-101 15.003c5.245 0 9.497 4.252 9.497 9.5 0 5.247-4.248 9.5-9.497 9.5H193.5h101-15.003c-5.245 0-9.497-4.252-9.497-9.5 0-5.247 4.248-9.5 9.497-9.5H294.5zM174 325.5c0-5.247 4.248-9.5 9.497-9.5h131.006c5.245 0 9.497 4.252 9.497 9.5 0 5.247-4.248 9.5-9.497 9.5H183.497c-5.245 0-9.497-4.252-9.497-9.5zm-80 76c0-5.247 4.25-9.5 9.498-9.5h118.004c5.246 0 9.498 4.252 9.498 9.5 0 5.247-4.25 9.5-9.498 9.5H103.498c-5.246 0-9.498-4.252-9.498-9.5zm5-38c0-5.247 4.254-9.5 9.5-9.5h191a9.5 9.5 0 0 1 9.5 9.5c0 5.247-4.254 9.5-9.5 9.5h-191a9.5 9.5 0 0 1-9.5-9.5zM806.067 468h-3.37a9.494 9.494 0 0 0-9.497 9.5c0 5.248 4.252 9.5 9.498 9.5h3.369-83.9 3.735a9.494 9.494 0 0 0 9.498-9.5c0-5.248-4.252-9.5-9.498-9.5h-3.735 83.9zm-21.6-38h-74.434 5.536c5.245 0 9.498 4.252 9.498 9.5 0 5.247-4.245 9.5-9.498 9.5h-5.536 74.434-11.036c-5.245 0-9.498-4.252-9.498-9.5 0-5.247 4.245-9.5 9.498-9.5h11.036zM662 420.5c0-5.247 4.25-9.5 9.49-9.5h126.953c5.241 0 9.49 4.252 9.49 9.5 0 5.247-4.249 9.5-9.49 9.5H671.49c-5.242 0-9.491-4.252-9.491-9.5zm10.267 76c0-5.247 4.259-9.5 9.502-9.5h134.995c5.248 0 9.503 4.252 9.503 9.5 0 5.247-4.26 9.5-9.503 9.5H681.769c-5.248 0-9.502-4.252-9.502-9.5zm22.733-38c0-5.247 4.26-9.5 9.503-9.5h134.994c5.249 0 9.503 4.252 9.503 9.5 0 5.247-4.26 9.5-9.503 9.5H704.503c-5.249 0-9.503-4.252-9.503-9.5z" fill="#E8ECF3"/><path d="M361 419v-4.999a3 3 0 1 0-6 0V419h-4.999a3 3 0 1 0 0 6H355v4.999a3 3 0 1 0 6 0V425h4.999a3 3 0 1 0 0-6H361z" fill="#F9B233"/><path d="M478.243 62l3.534-3.535a3 3 0 1 0-4.242-4.242L474 57.757l-3.535-3.534a3 3 0 1 0-4.242 4.242L469.757 62l-3.534 3.535a3 3 0 1 0 4.242 4.242L474 66.243l3.535 3.534a3 3 0 1 0 4.242-4.242L478.243 62z" fill="#02D4B1"/><circle stroke="#EA515A" stroke-width="4" cx="352" cy="100" r="7"/><circle stroke="#02D4B1" stroke-width="4" cx="751" cy="346" r="7"/><circle fill="#EA515A" cx="708" cy="179" r="5"/><circle fill="#39A9DB" cx="282" cy="477" r="5"/><path d="M623.5 76c0-1.657 1.347-3 3-3 1.657 0 3 1.334 3 3v11c0 1.657-1.347 3-3 3-1.657 0-3-1.334-3-3V76zm17.496 4.762a3.002 3.002 0 0 1 4.242 0 2.994 2.994 0 0 1 0 4.242l-7.778 7.778a3.002 3.002 0 0 1-4.242 0 2.994 2.994 0 0 1 0-4.242l7.778-7.778zM650 96.5c1.657 0 3 1.347 3 3 0 1.657-1.334 3-3 3h-11c-1.657 0-3-1.347-3-3 0-1.657 1.334-3 3-3h11zm-4.762 17.496a3.002 3.002 0 0 1 0 4.242 2.994 2.994 0 0 1-4.242 0l-7.778-7.778a3.002 3.002 0 0 1 0-4.242 2.994 2.994 0 0 1 4.242 0l7.778 7.778zM629.5 123c0 1.657-1.347 3-3 3-1.657 0-3-1.334-3-3v-11c0-1.657 1.347-3 3-3 1.657 0 3 1.334 3 3v11zm-17.496-4.762a3.002 3.002 0 0 1-4.242 0 2.994 2.994 0 0 1 0-4.242l7.778-7.778a3.002 3.002 0 0 1 4.242 0 2.994 2.994 0 0 1 0 4.242l-7.778 7.778zM603 102.5c-1.657 0-3-1.347-3-3 0-1.657 1.334-3 3-3h11c1.657 0 3 1.347 3 3 0 1.657-1.334 3-3 3h-11zm4.762-17.496a3.002 3.002 0 0 1 0-4.242 2.994 2.994 0 0 1 4.242 0l7.778 7.778a3.002 3.002 0 0 1 0 4.242 2.994 2.994 0 0 1-4.242 0l-7.778-7.778z" fill="#39A9DB"/><path d="M664 279v-4.999a3 3 0 1 0-6 0V279h-4.999a3 3 0 1 0 0 6H658v4.999a3 3 0 1 0 6 0V285h4.999a3 3 0 1 0 0-6H664z" fill="#F9B233"/><g transform="translate(369 346)"><rect fill="#DEE0EA" y="168" width="257" height="38.762" rx="19.381"/><path d="M60.169 28L50.052 169.426c-.789 11.018 7.524 19.95 18.563 19.95H187.96c11.044 0 19.292-8.936 18.425-19.93L195.236 28H60.169z" stroke="#6F7592" stroke-width="6" fill="#AAAFC7"/><path stroke="#6F7592" stroke-width="6" fill="#FFF" d="M60.998 26L58 63.227H198.354L195.666 26"/><use fill="#AAAFC7" xlink:href="#a"/><rect stroke="#6F7592" stroke-width="6" x="16" y="3" width="224" height="22" rx="11"/><circle fill="#FFF" cx="129.284" cy="120.284" r="31.284"/><path fill="url(#b)" d="M123.12 103h16.3l-9.22 19.535 9.011-.003-17.319 27.273 2.997-18.299-5.889.151z"/></g><path d="M299 230h88" stroke="#DEE0EA" stroke-width="4" stroke-linecap="round" stroke-linejoin="round" stroke-dasharray="12,12"/><path d="M262 230.432c0 .884.723 1.687.723 1.687l8.204 8.29a2.012 2.012 0 0 0 2.853-.005c.79-.79.79-2.069.004-2.855l-5.09-5.095h21.294a2.012 2.012 0 0 0 2.012-2.022 2.021 2.021 0 0 0-2.012-2.023H268.83l4.954-4.958a2.021 2.021 0 0 0-.004-2.855 2.012 2.012 0 0 0-2.853-.005l-8.1 8.018s-.827.938-.827 1.823z" fill="#DEE0EA"/><path d="M688 230h-88" stroke="#DEE0EA" stroke-width="4" stroke-linecap="round" stroke-linejoin="round" stroke-dasharray="12,12"/><path d="M725 230.432c0 .884-.723 1.687-.723 1.687l-8.204 8.29a2.012 2.012 0 0 1-2.853-.005c-.79-.79-.79-2.069-.004-2.855l5.09-5.095h-21.294a2.012 2.012 0 0 1-2.012-2.022c0-1.117.907-2.023 2.012-2.023h21.158l-4.954-4.958a2.021 2.021 0 0 1 .004-2.855 2.012 2.012 0 0 1 2.853-.005l8.1 8.018s.827.938.827 1.823z" fill="#DEE0EA"/><g transform="translate(40.556 130)"><rect stroke="#6F7592" stroke-width="6" fill="#FFF" x=".185" width="195.265" height="149.143" rx="20"/><path d="M.185 15.714C.185 7.036 7.22 0 15.895 0H179.74c8.677 0 15.711 7.034 15.711 15.714V31.43H.185V15.714z" stroke="#6F7592" stroke-width="6" fill="#E8ECF3"/><circle stroke="#8C0000" stroke-width="4" fill="#F27455" cx="18.5" cy="15.5" r="6.5"/><circle stroke="#967700" stroke-width="4" fill="#FFC740" cx="38.5" cy="15.5" r="6.5"/><circle stroke="#248E00" stroke-width="4" fill="#72D052" cx="58.5" cy="15.5" r="6.5"/><path d="M99.5 111C85.417 111 74 99.583 74 85.5S85.417 60 99.5 60 125 71.417 125 85.5 113.583 111 99.5 111zm-5.715-26.335a2.15 2.15 0 0 0-3.136 0 2.393 2.393 0 0 0 0 3.278l4.61 4.865a2.147 2.147 0 0 0 2.887.225l11.649-11.226c.982-1.12 1.11-2.453.368-3.234-.743-.78-2.24-.812-3.475.204l-9.44 9.374-3.463-3.486z" fill="#02D4B1"/></g><g transform="translate(383 155)"><mask id="d" fill="#fff"><use xlink:href="#c"/></mask><use fill="#FFF" xlink:href="#c"/><path stroke="#6F7592" stroke-width="6" d="M151.937 158.81c44.672 0 80.888-36.223 80.888-80.905C232.825 33.216 196.613-3 151.937-3H77.888C33.216-3-3 33.223-3 77.905c0 44.689 36.212 80.905 80.888 80.905h11.987c1.967 0 5.034 1.27 6.417 2.652l8.237 8.237c5.734 5.734 15.033 5.735 20.767 0l8.237-8.237c1.388-1.387 4.445-2.652 6.417-2.652h11.987z"/><path d="M78.723 149.486c0-3.312 1.471-8.245 3.574-10.808 0 0 5.92-13.234 32.703-13.234 26.782 0 32.714 13.245 32.714 13.245 1.968 2.651 3.563 7.496 3.563 10.797v24.079H78.723v-24.08z" stroke="#6F7592" stroke-width="5" fill="#EA515A" stroke-linejoin="round" mask="url(#d)"/><path d="M127.848 58.604c0-7.517 6.09-13.611 13.604-13.611 7.513 0 13.604 6.098 13.604 13.611v30.75h-27.208v-30.75z" stroke="#6F7592" stroke-width="5" fill="#F4D8A8" mask="url(#d)"/><rect stroke="#6F7592" stroke-width="5" fill="#EAC4A9" mask="url(#d)" x="107.442" y="107.399" width="15.116" height="24.812" rx="7.558"/><rect stroke="#6F7592" stroke-width="5" fill="#EAC4A9" mask="url(#d)" x="84.769" y="38.226" width="60.462" height="79.7" rx="30.231"/><path d="M84.517 35.943c-5.97 1.745-10.329 7.256-10.329 13.785v39.626H84.58V73.429c0-7.724 6.258-14.398 13.978-14.893l1.205-.077c.507.045 1.02.068 1.54.068h21.845c31.995 0 34.175-34.587 34.175-34.587h-57.312c-7.454 0-13.718 5.1-15.494 12.003z" stroke="#6F7592" stroke-width="5" fill="#F4D8A8" stroke-linejoin="round" mask="url(#d)"/><path d="M84.7 78.076v20.3s-12.023.745-12.023-10.15 12.022-10.15 12.022-10.15z" stroke="#6F7592" stroke-width="5" fill="#EAC4A9" mask="url(#d)"/><path d="M157.254 78.086v20.301s-12.023.745-12.023-10.15 12.023-10.15 12.023-10.15z" stroke="#6F7592" stroke-width="5" fill="#EAC4A9" mask="url(#d)" transform="matrix(-1 0 0 1 302.485 0)"/><path d="M122.018 138.504c.631-1.657.178-1.997-1.013-.758l-11.312 11.777c-1.19 1.24-.809 2.245.853 2.245h3.141l-3.705 9.728c-.631 1.657-.178 1.997 1.013.758l11.312-11.777c1.19-1.24.809-2.245-.853-2.245h-3.141l3.705-9.728z" fill="#F9B233" mask="url(#d)"/><circle fill="#6F7592" mask="url(#d)" cx="102.5" cy="83.5" r="3.5"/><circle fill="#6F7592" mask="url(#d)" cx="126.5" cy="83.5" r="3.5"/><path d="M111.097 102.606c2.302.91 6.265.839 7.998 0 1.732-.84 5.013-3.185 5.013-6.1 0-1.239-5.19-1.792-9.07-1.792s-9.069.569-9.069 1.793c0 2.555 2.827 5.188 5.128 6.099z" fill="#6F7592" mask="url(#d)"/></g></g></svg>